<?xml version="1.0" encoding="UTF-8" standalone="no"?>
<!-- Created with Inkscape (http://www.inkscape.org/) -->

<svg
   width="210mm"
   height="297mm"
   viewBox="0 0 210 297"
   version="1.1"
   id="svg5"
   sodipodi:docname="caminoslevantados.svg"
   inkscape:version="1.2.1 (9c6d41e410, 2022-07-14)"
   inkscape:export-filename="caminoslevantados.pdf"
   inkscape:export-xdpi="96"
   inkscape:export-ydpi="96"
   xmlns:inkscape="http://www.inkscape.org/namespaces/inkscape"
   xmlns:sodipodi="http://sodipodi.sourceforge.net/DTD/sodipodi-0.dtd"
   xmlns="http://www.w3.org/2000/svg"
   xmlns:svg="http://www.w3.org/2000/svg">
  <sodipodi:namedview
     id="namedview7"
     pagecolor="#ffffff"
     bordercolor="#666666"
     borderopacity="1.0"
     inkscape:showpageshadow="2"
     inkscape:pageopacity="0.0"
     inkscape:pagecheckerboard="0"
     inkscape:deskcolor="#d1d1d1"
     inkscape:document-units="mm"
     showgrid="false"
     inkscape:zoom="2"
     inkscape:cx="307.25"
     inkscape:cy="491.25"
     inkscape:window-width="1920"
     inkscape:window-height="1031"
     inkscape:window-x="2560"
     inkscape:window-y="49"
     inkscape:window-maximized="1"
     inkscape:current-layer="layer1" />
  <defs
     id="defs2">
    <inkscape:path-effect
       effect="bspline"
       id="path-effect835"
       is_visible="true"
       lpeversion="1"
       weight="33.333333"
       steps="2"
       helper_size="0"
       apply_no_weight="true"
       apply_with_weight="true"
       only_selected="false" />
    <inkscape:path-effect
       effect="bspline"
       id="path-effect831"
       is_visible="true"
       lpeversion="1"
       weight="33.333333"
       steps="2"
       helper_size="0"
       apply_no_weight="true"
       apply_with_weight="true"
       only_selected="false" />
    <inkscape:path-effect
       effect="bspline"
       id="path-effect827"
       is_visible="true"
       lpeversion="1"
       weight="33.333333"
       steps="2"
       helper_size="0"
       apply_no_weight="true"
       apply_with_weight="true"
       only_selected="false" />
    <inkscape:path-effect
       effect="bspline"
       id="path-effect823"
       is_visible="true"
       lpeversion="1"
       weight="33.333333"
       steps="2"
       helper_size="0"
       apply_no_weight="true"
       apply_with_weight="true"
       only_selected="false" />
    <inkscape:path-effect
       effect="bspline"
       id="path-effect819"
       is_visible="true"
       lpeversion="1"
       weight="33.333333"
       steps="2"
       helper_size="0"
       apply_no_weight="true"
       apply_with_weight="true"
       only_selected="false" />
    <clipPath
       id="clip1">
      <path
         d="M 0,0 H 7.75 V 7 H 0 Z m 0,0"
         id="path10" />
    </clipPath>
    <clipPath
       id="clipPath5725">
      <path
         d="M 0,0 H 7.941406 V 7.0625 H 0 Z m 0,0"
         id="path5723" />
    </clipPath>
    <clipPath
       id="clipPath8397">
      <path
         d="m 7,0 h 4 V 10.390625 H 7 Z m 0,0"
         id="path22" />
    </clipPath>
    <clipPath
       id="clip2">
      <path
         d="m 16,0 h 3 v 10.390625 h -3 z m 0,0"
         id="path25" />
    </clipPath>
    <clipPath
       id="clipPath10378">
      <path
         d="m 9,0 h 4 V 12.46875 H 9 Z m 0,0"
         id="path10376" />
    </clipPath>
    <clipPath
       id="clipPath10382">
      <path
         d="m 19,0 h 4 v 12.46875 h -4 z m 0,0"
         id="path10380" />
    </clipPath>
    <clipPath
       id="clipPath12005">
      <path
         d="M 0,0 H 21 V 11.277344 H 0 Z m 0,0"
         id="path19" />
    </clipPath>
    <clipPath
       id="clipPath13260">
      <path
         d="m 9,0 h 4 V 12.46875 H 9 Z m 0,0"
         id="path13258" />
    </clipPath>
    <clipPath
       id="clipPath13264">
      <path
         d="m 19,0 h 4 v 12.46875 h -4 z m 0,0"
         id="path13262" />
    </clipPath>
    <clipPath
       id="clipPath5350">
      <path
         d="m 9,0 h 4 V 12.46875 H 9 Z m 0,0"
         id="path6519" />
    </clipPath>
    <clipPath
       id="clipPath3068">
      <path
         d="m 19,0 h 4 v 12.46875 h -4 z m 0,0"
         id="path617" />
    </clipPath>
    <clipPath
       id="clipPath2386">
      <path
         d="m 9,0 h 4 V 12.46875 H 9 Z m 0,0"
         id="path7331" />
    </clipPath>
    <clipPath
       id="clipPath7084">
      <path
         d="m 19,0 h 4 v 12.46875 h -4 z m 0,0"
         id="path5085" />
    </clipPath>
    <clipPath
       id="clipPath5348">
      <path
         d="m 9,0 h 4 V 12.46875 H 9 Z m 0,0"
         id="path4968" />
    </clipPath>
    <clipPath
       id="clipPath5986">
      <path
         d="m 18,0 h 4 v 12.46875 h -4 z m 0,0"
         id="path9910" />
    </clipPath>
    <clipPath
       id="clipPath1037">
      <path
         d="M 0,0 H 4.820312 V 4.910156 H 0 Z m 0,0"
         id="path1250" />
    </clipPath>
    <clipPath
       id="clipPath5085">
      <path
         d="M 0,0 H 5 V 5.378906 H 0 Z m 0,0"
         id="path6696" />
    </clipPath>
    <clipPath
       id="clipPath3060">
      <path
         d="M 0,0 H 5.785156 V 5.894531 H 0 Z m 0,0"
         id="path9017" />
    </clipPath>
    <clipPath
       id="clipPath3395">
      <path
         d="M 0,0 H 5.835938 V 8.816406 H 0 Z m 0,0"
         id="path753" />
    </clipPath>
    <clipPath
       id="clipPath170">
      <path
         d="M 0,0 H 5 V 5.894531 H 0 Z m 0,0"
         id="path2766" />
    </clipPath>
    <clipPath
       id="clipPath1022">
      <path
         d="M 1,0 H 5 V 12.46875 H 1 Z m 0,0"
         id="path1801" />
    </clipPath>
    <clipPath
       id="clipPath5582">
      <path
         d="m 24,0 h 4 v 12.46875 h -4 z m 0,0"
         id="path7638" />
    </clipPath>
    <clipPath
       id="clipPath5656">
      <path
         d="M 1,0 H 5 V 12.65625 H 1 Z m 0,0"
         id="path1098" />
    </clipPath>
    <clipPath
       id="clipPath3202">
      <path
         d="m 5,3 h 7 v 9.65625 H 5 Z m 0,0"
         id="path6629" />
    </clipPath>
    <clipPath
       id="clipPath6344">
      <path
         d="m 23,0 h 4 v 12.65625 h -4 z m 0,0"
         id="path7791" />
    </clipPath>
    <clipPath
       id="clipPath98">
      <path
         d="M 0,1 H 11 V 13.910156 H 0 Z m 0,0"
         id="path2976" />
    </clipPath>
    <clipPath
       id="clipPath5396">
      <path
         d="m 28,1 h 4 v 12.910156 h -4 z m 0,0"
         id="path7409" />
    </clipPath>
    <clipPath
       id="clipPath2842">
      <path
         d="m 32,4 h 7 v 9.910156 h -7 z m 0,0"
         id="path5430" />
    </clipPath>
    <clipPath
       id="clipPath7906">
      <path
         d="m 51,1 h 4 v 12.910156 h -4 z m 0,0"
         id="path2405" />
    </clipPath>
    <clipPath
       id="clipPath8834">
      <path
         d="m 55,1 h 4 v 12.910156 h -4 z m 0,0"
         id="path9966" />
    </clipPath>
    <clipPath
       id="clipPath140">
      <path
         d="M 0,0 H 6.695312 V 9 H 0 Z m 0,0"
         id="path8459" />
    </clipPath>
    <clipPath
       id="clipPath4716">
      <path
         d="M 0,0 H 4.722656 V 5.707031 H 0 Z m 0,0"
         id="path1442" />
    </clipPath>
    <clipPath
       id="clipPath9431">
      <path
         d="m 14,0 h 4 v 12.65625 h -4 z m 0,0"
         id="path6921" />
    </clipPath>
    <clipPath
       id="clipPath8624">
      <path
         d="m 31,3 h 6 v 9.65625 h -6 z m 0,0"
         id="path1966" />
    </clipPath>
    <clipPath
       id="clipPath8723">
      <path
         d="m 38,0 h 4 v 12.65625 h -4 z m 0,0"
         id="path8490" />
    </clipPath>
    <clipPath
       id="clipPath498">
      <path
         d="M 0,0 H 6.933594 V 9.085938 H 0 Z m 0,0"
         id="path6125" />
    </clipPath>
  </defs>
  <g
     inkscape:label="Layer 1"
     inkscape:groupmode="layer"
     id="layer1">
    <path
       style="fill:none;stroke:#000000;stroke-width:0.264583px;stroke-linecap:butt;stroke-linejoin:miter;stroke-opacity:1"
       d="m 65.790169,145.46245 c -4.494869,0.24103 -19.076733,2.495 -19.839323,8.59299 -0.744233,5.95118 10.697244,6.53906 14.152041,6.74219 6.551268,0.3852 13.15317,0.0113 19.707066,0.3966 10.879566,0.63964 28.624357,2.42637 38.620547,-2.1152 13.98642,-6.35445 -15.21592,-12.16239 -18.781221,-12.16239 -4.143669,0 -8.227854,-0.74049 -12.300381,-1.322 -7.083036,-1.01137 -14.623923,-0.13219 -21.558729,-0.13219 z"
       id="path2652" />
    <circle
       style="fill:#000000;fill-opacity:1;stroke-width:0.264583"
       id="path3416-3"
       cx="61.118752"
       cy="152.2309"
       r="0.46269986" />
    <circle
       style="fill:#000000;fill-opacity:1;stroke-width:0.264583"
       id="path3416-7"
       cx="100.7264"
       cy="152.93376"
       r="0.46269986" />
    <circle
       style="fill:#000000;fill-opacity:1;stroke-width:0.264583"
       id="path3416-18"
       cx="100.2151"
       cy="128.42633"
       r="0.46269986" />
    <circle
       style="fill:#000000;fill-opacity:1;stroke-width:0.264583"
       id="path3416-79"
       cx="98.760757"
       cy="113.48234"
       r="0.46269986" />
    <circle
       style="fill:#000000;fill-opacity:1;stroke-width:0.264583"
       id="path3416-23"
       cx="61.591862"
       cy="125.91197"
       r="0.46269986" />
    <g
       inkscape:label=""
       transform="matrix(1.8571423,0,0,1.8571423,41.836696,146.17979)"
       id="g5776">
      <g
         id="g5774"
         transform="matrix(0.352778,0,0,0.352778,-0.153635,0.00467426)">
        <g
           clip-path="url(#clip1)"
           clip-rule="nonzero"
           id="g5772">
          <g
             style="fill:#000000;fill-opacity:1"
             id="g5770">
            <g
               id="g5768"
               transform="translate(0.62300003,7.0180001)">
              <path
                 style="stroke:none"
                 d="m 4.609375,-7.03125 -3.71875,5.921875 C 0.53125,-0.5625 0.34375,-0.40625 0.015625,-0.3125 L -0.1875,-0.265625 V 0.03125 C 0.734375,0 0.734375,0 0.921875,0 1.109375,0 1.140625,0 2,0.03125 V -0.25 L 1.46875,-0.28125 C 1.3125,-0.296875 1.171875,-0.375 1.171875,-0.46875 c 0,-0.078125 0.0625,-0.21875 0.25,-0.546875 l 1.015625,-1.75 h 2.453125 l 0.25,1.875 v 0.03125 c 0,0.015625 0.015625,0.046875 0.015625,0.09375 0.015625,0.078125 0.03125,0.171875 0.03125,0.21875 0,0.15625 -0.15625,0.25 -0.4375,0.265625 L 4.3125,-0.25 V 0.03125 C 5.328125,0 5.328125,0 5.53125,0 5.734375,0 5.734375,0 6.75,0.03125 V -0.25 L 6.484375,-0.28125 C 6.015625,-0.34375 6.015625,-0.34375 5.9375,-0.796875 L 5.0625,-7.03125 Z M 4.46875,-5.984375 4.84375,-3.125 H 2.6875 Z m 0,0"
                 id="path5766" />
            </g>
          </g>
        </g>
      </g>
    </g>
    <g
       inkscape:label=""
       transform="translate(57.886287,151.92017)"
       id="g12317">
      <g
         id="g12315"
         transform="matrix(0.352778,0,0,0.352778,-0.1326,-0.00507125)">
        <g
           clip-path="url(#clipPath3060)"
           clip-rule="nonzero"
           id="g19">
          <g
             style="fill:#000000;fill-opacity:1"
             id="g17">
            <g
               id="use15"
               transform="translate(0.329,5.7800002)">
              <path
                 style="stroke:none"
                 d="M 4.8125,-5.640625 4.6875,-5.75 4.296875,-5.53125 c -0.5,-0.1875 -0.703125,-0.234375 -1.015625,-0.234375 -0.34375,0 -0.578125,0.0625 -0.90625,0.21875 -0.734375,0.375 -1.125,0.734375 -1.4375,1.3125 -0.515625,1.0625 -0.890625,2.5 -0.890625,3.4375 0,0.515625 0.1875,0.921875 0.40625,0.921875 0.265625,0 0.71875,-0.25 1.171875,-0.65625 0.5,-0.453125 0.96875,-1 1.609375,-1.90625 l -0.34375,1.515625 C 2.84375,-0.71875 2.828125,-0.5 2.828125,-0.3125 c 0,0.265625 0.09375,0.421875 0.28125,0.421875 0.265625,0 0.765625,-0.3125 1.75,-1.125 l -0.09375,-0.25 c -0.0625,0.0625 -0.109375,0.078125 -0.15625,0.125 -0.375,0.328125 -0.5625,0.4375 -0.734375,0.4375 -0.109375,0 -0.1875,-0.109375 -0.1875,-0.28125 0,-0.0625 0,-0.09375 0.015625,-0.125 z m -1,0.6875 c -0.265625,1.3125 -0.484375,1.921875 -0.890625,2.546875 -0.6875,1 -1.421875,1.703125 -1.796875,1.703125 -0.140625,0 -0.21875,-0.15625 -0.21875,-0.484375 0,-0.765625 0.34375,-2.15625 0.75,-3.109375 0.296875,-0.65625 0.5625,-0.875 1.140625,-0.875 0.28125,0 0.484375,0.046875 1.015625,0.21875 z m 0,0"
                 id="path26" />
            </g>
          </g>
        </g>
      </g>
    </g>
    <g
       inkscape:label=""
       transform="translate(102.32115,152.05163)"
       id="g13705">
      <g
         id="g13703"
         transform="matrix(0.352778,0,0,0.352778,-0.206904,0.0220927)">
        <g
           clip-path="url(#clipPath3395)"
           clip-rule="nonzero"
           id="g13701">
          <g
             style="fill:#000000;fill-opacity:1"
             id="g13699">
            <g
               id="g13697"
               transform="translate(0.149,8.7030001)">
              <path
                 style="stroke:none"
                 d="M 2.8125,-8.625 2.671875,-8.765625 c -0.625,0.3125 -1.0625,0.421875 -1.921875,0.5 l -0.046875,0.25 H 1.28125 c 0.28125,0 0.40625,0.09375 0.40625,0.296875 0,0.078125 -0.015625,0.21875 -0.03125,0.28125 L 0.453125,-0.84375 C 0.4375,-0.8125 0.4375,-0.765625 0.4375,-0.734375 c 0,0.46875 0.578125,0.859375 1.234375,0.859375 0.4375,0 1.046875,-0.21875 1.5625,-0.59375 1.15625,-0.8125 1.9375,-2.453125 1.9375,-4.03125 0,-0.453125 -0.109375,-0.921875 -0.25,-1.09375 C 4.84375,-5.703125 4.6875,-5.765625 4.5,-5.765625 c -0.28125,0 -0.640625,0.09375 -0.96875,0.265625 -0.609375,0.328125 -1.015625,0.6875 -1.75,1.625 z m 1.03125,3.5625 c 0.3125,0 0.46875,0.265625 0.46875,0.859375 0,0.765625 -0.25,1.78125 -0.609375,2.5625 C 3.3125,-0.8125 2.828125,-0.4375 2.1875,-0.4375 1.640625,-0.4375 1.34375,-0.703125 1.34375,-1.203125 1.34375,-1.5 1.390625,-1.84375 1.5,-2.28125 1.71875,-3.234375 2.015625,-3.8125 2.484375,-4.3125 2.875,-4.71875 3.5,-5.0625 3.84375,-5.0625 Z m 0,0"
                 id="path13695" />
            </g>
          </g>
        </g>
      </g>
    </g>
    <path
       style="fill:none;stroke:#000000;stroke-width:0.264583px;stroke-linecap:butt;stroke-linejoin:miter;stroke-opacity:1"
       d="m 61.425094,152.33087 c -0.896302,-3.38228 1.088734,-14.87784 0,-17.05378 -0.732263,-1.4635 -2.198378,-2.62255 -3.042031,-4.0982 -3.104433,-5.43001 -3.10642,-13.38417 -0.529068,-18.90458 0.506976,-1.08589 1.718376,-3.23864 3.042028,-3.56939 2.388388,-0.59682 3.205186,2.99237 3.438808,4.62699 0.743627,5.20304 2.089293,12.79866 0.793589,17.97918 -0.418087,1.6716 -2.848213,3.06055 -3.703326,3.7016"
       id="path3608" />
    <path
       style="fill:none;stroke:#000000;stroke-width:0.264583px;stroke-linecap:butt;stroke-linejoin:miter;stroke-opacity:1"
       d="m 100.83919,152.72746 c -3.10891,-2.19321 -0.63114,-15.70165 -1.851661,-16.92157 -0.222832,-0.22273 -0.882748,-0.0891 -1.190365,-0.3966 -3.74605,-3.7443 -3.967848,-17.20664 -3.967848,-22.47398 0,-3.15969 -0.01315,-6.54224 3.703328,-7.00659 8.761416,-1.09468 10.790886,19.14581 8.200246,24.32477 -2.70778,5.41313 -2.74341,3.61838 -6.613101,5.5524"
       id="path3614" />
    <path
       style="fill:none;stroke:#000000;stroke-width:0.264583px;stroke-linecap:butt;stroke-linejoin:miter;stroke-opacity:1"
       d="m 61.425094,152.46307 c 2.318081,-0.71999 4.94801,-0.93406 7.406654,-0.661 2.705195,0.30044 5.180001,1.28158 7.803464,1.7186 2.124869,0.35395 4.769824,-0.79424 6.877648,-1.0576 1.855933,-0.23189 3.229224,0.59265 4.893694,0.9254 1.523002,0.30447 3.547755,-0.4977 5.025953,-0.7932 1.138949,-0.22768 2.546496,0.40496 3.5711,0.661 1.271886,0.31784 2.559717,-0.52881 3.835583,-0.52881"
       id="path3620" />
    <path
       style="fill:none;stroke:#000000;stroke-width:0.264583px;stroke-linecap:butt;stroke-linejoin:miter;stroke-opacity:1"
       d="m 98.855269,114.52171 c 0.184243,0.5626 0.30947,1.19498 0.396778,1.7186"
       id="path5138" />
    <path
       style="fill:none;stroke:#000000;stroke-width:0.264583px;stroke-linecap:butt;stroke-linejoin:miter;stroke-opacity:1"
       d="m 100.31015,128.40269 c 0,-0.57287 0,-1.14573 0,-1.7186"
       id="path5140" />
    <path
       style="fill:none;stroke:#000000;stroke-width:0.264583px;stroke-linecap:butt;stroke-linejoin:miter;stroke-opacity:1"
       d="m 99.384306,116.90131 c 0.01159,0.51121 0.170752,0.98557 0.26452,1.4542"
       id="path5142" />
    <path
       style="fill:none;stroke:#000000;stroke-width:0.264583px;stroke-linecap:butt;stroke-linejoin:miter;stroke-opacity:1"
       d="m 100.57467,126.4197 c -0.18221,-0.6488 -0.13226,-1.31709 -0.13226,-1.983"
       id="path5144" />
    <path
       style="fill:none;stroke:#000000;stroke-width:0.264583px;stroke-linecap:butt;stroke-linejoin:miter;stroke-opacity:1"
       d="m 99.781086,119.0165 c 0.0232,0.59838 0.17853,1.07051 0.264554,1.5864"
       id="path5146" />
    <path
       style="fill:none;stroke:#000000;stroke-width:0.264583px;stroke-linecap:butt;stroke-linejoin:miter;stroke-opacity:1"
       d="m 100.44241,123.6435 c -0.11885,-0.66164 -0.14441,-1.25053 -0.26451,-1.8508"
       id="path5150" />
    <g
       inkscape:label=""
       transform="matrix(0.90972561,0,0,0.90972561,55.143767,120.32399)"
       id="g7265">
      <g
         id="surface1"
         transform="matrix(0.352778,0,0,0.352778,-0.488024,-0.00185208)">
        <g
           clip-path="url(#clipPath1022)"
           clip-rule="nonzero"
           id="g40">
          <g
             style="fill:#000000;fill-opacity:1"
             id="g38">
            <g
               id="use36"
               transform="translate(0.149,9.349)">
              <path
                 style="stroke:none"
                 d="m 4.125,2.984375 c 0,-0.03125 0,-0.0625 -0.21875,-0.265625 -1.546875,-1.578125 -1.953125,-3.921875 -1.953125,-5.828125 0,-2.171875 0.46875,-4.34375 2,-5.890625 C 4.125,-9.15625 4.125,-9.171875 4.125,-9.21875 c 0,-0.078125 -0.046875,-0.125 -0.125,-0.125 -0.125,0 -1.25,0.84375 -1.984375,2.4375 -0.640625,1.359375 -0.78125,2.75 -0.78125,3.796875 0,0.96875 0.140625,2.46875 0.828125,3.875 0.734375,1.53125 1.8125,2.34375 1.9375,2.34375 0.078125,0 0.125,-0.03125 0.125,-0.125 z m 0,0"
                 id="path65" />
            </g>
          </g>
        </g>
        <g
           style="fill:#000000;fill-opacity:1"
           id="g44">
          <g
             id="use42"
             transform="translate(5.4809999,9.349)">
            <path
               style="stroke:none"
               d="M 0.25,-1.046875 C 0.25,-0.8125 0.234375,-0.65625 0.15625,-0.28125 0.125,-0.125 0.125,-0.09375 0.109375,-0.015625 0.28125,0.078125 0.484375,0.125 0.625,0.125 c 0.390625,0 0.859375,-0.34375 1.234375,-0.90625 l 0.90625,-1.390625 0.125,0.828125 C 3.046875,-0.328125 3.328125,0.125 3.75,0.125 c 0.265625,0 0.65625,-0.203125 1.03125,-0.546875 L 5.359375,-0.9375 5.265625,-1.171875 C 4.828125,-0.8125 4.53125,-0.640625 4.34375,-0.640625 4.15625,-0.640625 4,-0.75 3.890625,-0.984375 3.78125,-1.21875 3.640625,-1.65625 3.578125,-2.015625 L 3.375,-3.21875 3.796875,-3.796875 c 0.546875,-0.78125 0.875,-1.0625 1.25,-1.0625 0.1875,0 0.328125,0.109375 0.390625,0.28125 L 5.609375,-4.625 5.78125,-5.640625 c -0.140625,-0.078125 -0.25,-0.125 -0.359375,-0.125 -0.46875,0 -0.953125,0.4375 -1.6875,1.53125 l -0.453125,0.65625 -0.0625,-0.5625 c -0.140625,-1.1875 -0.46875,-1.625 -1.171875,-1.625 -0.3125,0 -0.578125,0.09375 -0.6875,0.25 l -0.6875,1 L 0.875,-4.40625 c 0.359375,-0.40625 0.59375,-0.5625 0.828125,-0.5625 0.390625,0 0.65625,0.484375 0.859375,1.65625 l 0.125,0.75 -0.46875,0.734375 c -0.515625,0.796875 -0.921875,1.1875 -1.265625,1.1875 C 0.78125,-0.640625 0.640625,-0.6875 0.625,-0.75 L 0.484375,-1.09375 Z m 0,0"
               id="path69" />
          </g>
        </g>
        <g
           style="fill:#000000;fill-opacity:1"
           id="g48">
          <g
             id="use46"
             transform="translate(11.728,9.349)">
            <path
               style="stroke:none"
               d="M 2.4375,-1.46875 C 2.109375,-1.359375 1.90625,-1.296875 1.265625,-1.109375 1.1875,-0.203125 0.890625,0.578125 0.1875,1.71875 L 0.359375,1.859375 0.84375,1.625 c 0.96875,-1.25 1.421875,-2 1.765625,-2.921875 z m 0,0"
               id="path73" />
          </g>
        </g>
        <g
           style="fill:#000000;fill-opacity:1"
           id="g52">
          <g
             id="use50"
             transform="translate(16.858999,9.349)">
            <path
               style="stroke:none"
               d="M 3.984375,-1.15625 C 3.890625,-0.875 3.84375,-0.546875 3.84375,-0.375 c 0,0.296875 0.140625,0.484375 0.359375,0.484375 0.3125,0 0.75,-0.25 1.921875,-1.125 L 6,-1.234375 5.6875,-1.03125 C 5.40625,-0.84375 5.09375,-0.703125 4.953125,-0.703125 4.859375,-0.703125 4.8125,-0.78125 4.8125,-0.90625 4.8125,-1 4.828125,-1.140625 4.859375,-1.3125 L 4.875,-1.390625 c 0.28125,-1.296875 0.640625,-2.890625 1,-4.265625 l -0.078125,-0.109375 -0.8125,0.203125 -0.125,0.609375 c -0.171875,0.9375 -0.46875,1.75 -0.84375,2.3125 -0.703125,1.09375 -1.640625,1.9375 -2.109375,1.9375 -0.09375,0 -0.15625,-0.109375 -0.15625,-0.3125 0,-0.171875 0.015625,-0.328125 0.078125,-0.625 L 2.515625,-4.875 C 2.546875,-5.0625 2.5625,-5.234375 2.5625,-5.390625 c 0,-0.234375 -0.09375,-0.375 -0.265625,-0.375 -0.234375,0 -0.6875,0.25 -1.578125,0.890625 l -0.34375,0.234375 0.09375,0.234375 0.375,-0.25 C 1.1875,-4.859375 1.3125,-4.921875 1.421875,-4.921875 1.53125,-4.921875 1.625,-4.8125 1.625,-4.6875 c 0,0.046875 -0.015625,0.171875 -0.015625,0.21875 L 0.84375,-0.921875 c -0.015625,0.109375 -0.046875,0.390625 -0.046875,0.5625 0,0.28125 0.1875,0.484375 0.421875,0.484375 0.75,0 2.203125,-1.328125 3.203125,-2.984375 z m 0,0"
               id="path77" />
          </g>
        </g>
        <g
           clip-path="url(#clipPath5582)"
           clip-rule="nonzero"
           id="g58">
          <g
             style="fill:#000000;fill-opacity:1"
             id="g56">
            <g
               id="use54"
               transform="translate(23.805,9.349)">
              <path
                 style="stroke:none"
                 d="m 3.59375,-3.109375 c 0,-0.96875 -0.125,-2.484375 -0.8125,-3.890625 -0.75,-1.53125 -1.828125,-2.34375 -1.953125,-2.34375 -0.0625,0 -0.125,0.046875 -0.125,0.125 0,0.046875 0,0.0625 0.25,0.296875 1.21875,1.21875 1.921875,3.203125 1.921875,5.8125 0,2.125 -0.453125,4.3125 -2,5.890625 -0.171875,0.140625 -0.171875,0.171875 -0.171875,0.203125 0,0.078125 0.0625,0.125 0.125,0.125 0.125,0 1.25,-0.84375 1.984375,-2.421875 0.640625,-1.375 0.78125,-2.75 0.78125,-3.796875 z m 0,0"
                 id="path81" />
            </g>
          </g>
        </g>
      </g>
    </g>
    <g
       inkscape:label=""
       transform="matrix(0.85177022,0,0,0.85177022,96.374611,129.31361)"
       id="g9092">
      <g
         id="g9090"
         transform="matrix(0.352778,0,0,0.352778,-0.488024,-0.00185208)">
        <g
           clip-path="url(#clipPath5656)"
           clip-rule="nonzero"
           id="g43">
          <g
             style="fill:#000000;fill-opacity:1"
             id="g41">
            <g
               id="use39"
               transform="translate(0.149,9.349)">
              <path
                 style="stroke:none"
                 d="m 4.125,2.984375 c 0,-0.03125 0,-0.0625 -0.21875,-0.265625 -1.546875,-1.578125 -1.953125,-3.921875 -1.953125,-5.828125 0,-2.171875 0.46875,-4.34375 2,-5.890625 C 4.125,-9.15625 4.125,-9.171875 4.125,-9.21875 c 0,-0.078125 -0.046875,-0.125 -0.125,-0.125 -0.125,0 -1.25,0.84375 -1.984375,2.4375 -0.640625,1.359375 -0.78125,2.75 -0.78125,3.796875 0,0.96875 0.140625,2.46875 0.828125,3.875 0.734375,1.53125 1.8125,2.34375 1.9375,2.34375 0.078125,0 0.125,-0.03125 0.125,-0.125 z m 0,0"
                 id="path70" />
            </g>
          </g>
        </g>
        <g
           clip-path="url(#clipPath3202)"
           clip-rule="nonzero"
           id="g49">
          <g
             style="fill:#000000;fill-opacity:1"
             id="g47">
            <g
               id="use45"
               transform="translate(5.2779999,9.349)">
              <path
                 style="stroke:none"
                 d="M -0.078125,2.15625 C -0.09375,2.234375 -0.09375,2.3125 -0.09375,2.359375 c 0,0.515625 0.4375,0.9375 0.984375,0.9375 1.265625,0 2.578125,-1.484375 3.28125,-3.6875 L 5.859375,-5.65625 5.71875,-5.765625 C 5.375,-5.625 5.109375,-5.5625 4.84375,-5.53125 l -0.421875,1.578125 c -0.140625,0.5625 -0.5625,1.4375 -0.953125,2.015625 -0.421875,0.609375 -1,1.140625 -1.265625,1.140625 -0.140625,0 -0.25,-0.28125 -0.25,-0.578125 l 0.015625,-0.15625 0.1875,-2.3125 c 0.015625,-0.375 0.046875,-0.828125 0.046875,-1.171875 0,-0.53125 -0.09375,-0.75 -0.296875,-0.75 -0.15625,0 -0.3125,0.09375 -0.890625,0.484375 L 0.03125,-4.609375 0.171875,-4.40625 0.765625,-4.75 0.8125,-4.796875 c 0.125,-0.0625 0.203125,-0.109375 0.25,-0.109375 0.171875,0 0.265625,0.234375 0.265625,0.625 0,0.015625 0,0.078125 -0.015625,0.1875 L 1.109375,-1.1875 1.09375,-0.71875 c 0,0.5 0.21875,0.84375 0.515625,0.84375 0.453125,0 1.453125,-1.015625 2.34375,-2.359375 L 3.375,-0.1875 C 2.765625,1.921875 2.15625,2.796875 1.328125,2.796875 c -0.421875,0 -0.75,-0.328125 -0.75,-0.734375 0,-0.0625 0.015625,-0.15625 0.03125,-0.265625 L 0.484375,1.75 Z m 0,0"
                 id="path74" />
            </g>
          </g>
        </g>
        <g
           style="fill:#000000;fill-opacity:1"
           id="g53">
          <g
             id="use51"
             transform="translate(11.405,9.349)">
            <path
               style="stroke:none"
               d="M 2.4375,-1.46875 C 2.109375,-1.359375 1.90625,-1.296875 1.265625,-1.109375 1.1875,-0.203125 0.890625,0.578125 0.1875,1.71875 L 0.359375,1.859375 0.84375,1.625 c 0.96875,-1.25 1.421875,-2 1.765625,-2.921875 z m 0,0"
               id="path78" />
          </g>
        </g>
        <g
           style="fill:#000000;fill-opacity:1"
           id="g57">
          <g
             id="use55"
             transform="translate(16.535999,9.349)">
            <path
               style="stroke:none"
               d="m 3.96875,-5.0625 0.125,0.234375 C 4.203125,-4.90625 4.3125,-4.9375 4.421875,-4.9375 c 0.328125,0 0.515625,0.28125 0.515625,0.75 0,1.765625 -1.15625,3.71875 -2.21875,3.71875 -0.578125,0 -0.953125,-0.5 -0.953125,-1.28125 0,-1.25 0.46875,-2.34375 1.640625,-3.796875 l -0.125,-0.21875 C 3.046875,-5.65625 2.890625,-5.625 2.5625,-5.625 2.21875,-5.625 1.71875,-5.640625 1.375,-5.671875 L 1.234375,-5.6875 C 1.15625,-5.703125 1.09375,-5.703125 1.09375,-5.703125 c -0.15625,0 -0.25,0.03125 -0.390625,0.078125 C 0.53125,-5.296875 0.40625,-4.859375 0.25,-4.203125 h 0.265625 l 0.203125,-0.5 c 0.078125,-0.203125 0.328125,-0.34375 0.609375,-0.34375 0.0625,0 0.171875,0 0.328125,0.015625 0.09375,0.015625 0.171875,0.015625 0.328125,0.015625 0.25,0 0.4375,-0.015625 0.75,-0.046875 -1.328125,1.421875 -1.828125,2.421875 -1.828125,3.609375 0,0.921875 0.546875,1.578125 1.3125,1.578125 0.5,0 0.953125,-0.203125 1.515625,-0.703125 0.5625,-0.515625 1.125,-1.3125 1.5,-2.140625 0.265625,-0.59375 0.46875,-1.390625 0.46875,-1.875 0,-0.671875 -0.3125,-1.171875 -0.75,-1.171875 -0.140625,0 -0.296875,0.046875 -0.390625,0.140625 z m 0,0"
               id="path82" />
          </g>
        </g>
        <g
           clip-path="url(#clipPath6344)"
           clip-rule="nonzero"
           id="g63">
          <g
             style="fill:#000000;fill-opacity:1"
             id="g61">
            <g
               id="use59"
               transform="translate(22.812,9.349)">
              <path
                 style="stroke:none"
                 d="m 3.59375,-3.109375 c 0,-0.96875 -0.125,-2.484375 -0.8125,-3.890625 -0.75,-1.53125 -1.828125,-2.34375 -1.953125,-2.34375 -0.0625,0 -0.125,0.046875 -0.125,0.125 0,0.046875 0,0.0625 0.25,0.296875 1.21875,1.21875 1.921875,3.203125 1.921875,5.8125 0,2.125 -0.453125,4.3125 -2,5.890625 -0.171875,0.140625 -0.171875,0.171875 -0.171875,0.203125 0,0.078125 0.0625,0.125 0.125,0.125 0.125,0 1.25,-0.84375 1.984375,-2.421875 0.640625,-1.375 0.78125,-2.75 0.78125,-3.796875 z m 0,0"
                 id="path86" />
            </g>
          </g>
        </g>
      </g>
    </g>
    <g
       inkscape:label=""
       transform="matrix(0.81146225,0,0,0.81146225,95.845576,108.95482)"
       id="g9547">
      <g
         id="g9545"
         transform="matrix(0.352778,0,0,0.352778,-0.253559,0.0011025)">
        <g
           clip-path="url(#clipPath98)"
           clip-rule="nonzero"
           id="g75">
          <g
             style="fill:#000000;fill-opacity:1"
             id="g73">
            <g
               id="use69"
               transform="translate(0,10.54)">
              <path
                 style="stroke:none"
                 d="M 3.59375,2.3125 C 2.734375,1.25 2.421875,0.6875 2.109375,-0.390625 1.859375,-1.25 1.75,-2.15625 1.75,-3.171875 c 0,-1 0.109375,-1.84375 0.34375,-2.625 0.3125,-1 0.625,-1.546875 1.5,-2.5625 L 3.375,-8.671875 c -1.25,1.109375 -1.734375,1.765625 -2.1875,2.9375 -0.3125,0.796875 -0.46875,1.640625 -0.46875,2.5625 0,1.265625 0.296875,2.484375 0.875,3.546875 0.421875,0.8125 0.796875,1.28125 1.78125,2.1875 z m 0,0"
                 id="path128" />
            </g>
            <g
               id="use71"
               transform="translate(3.981082,10.54)">
              <path
                 style="stroke:none"
                 d="M 3.546875,-1.03125 C 3.28125,-1.484375 3.15625,-1.75 2.9375,-2.34375 l -0.765625,-2 C 2.109375,-4.546875 2.0625,-4.734375 2.0625,-4.859375 c 0,-0.15625 0.125,-0.25 0.40625,-0.265625 L 2.921875,-5.15625 V -5.484375 C 1.75,-5.453125 1.75,-5.453125 1.53125,-5.453125 c -0.234375,0 -0.234375,0 -1.390625,-0.03125 v 0.328125 l 0.21875,0.03125 c 0.296875,0.03125 0.4375,0.171875 0.625,0.578125 L 2.28125,-1.40625 c 0.34375,0.8125 0.453125,1.09375 0.671875,1.6875 l -0.28125,0.734375 c -0.375,1 -0.84375,1.5625 -1.296875,1.5625 -0.1875,0 -0.40625,-0.09375 -0.609375,-0.265625 h -0.15625 l -0.28125,0.890625 c 0.21875,0.125 0.40625,0.171875 0.640625,0.171875 0.796875,0 1.3125,-0.421875 1.765625,-1.46875 L 5.15625,-3.6875 C 5.640625,-4.765625 5.875,-5.09375 6.171875,-5.125 L 6.5,-5.15625 v -0.328125 c -0.9375,0.03125 -0.9375,0.03125 -1.140625,0.03125 -0.1875,0 -0.1875,0 -1.125,-0.03125 v 0.328125 l 0.3125,0.03125 c 0.328125,0.015625 0.5,0.125 0.5,0.296875 0,0.078125 -0.03125,0.1875 -0.078125,0.3125 z m 0,0"
                 id="path132" />
            </g>
          </g>
        </g>
        <g
           style="fill:#000000;fill-opacity:1"
           id="g79">
          <g
             id="use77"
             transform="translate(9.3011456,10.54)">
            <path
               style="stroke:none"
               d="M 2.4375,-1.46875 C 2.109375,-1.359375 1.90625,-1.296875 1.265625,-1.109375 1.1875,-0.203125 0.890625,0.578125 0.1875,1.71875 L 0.359375,1.859375 0.84375,1.625 c 0.96875,-1.25 1.421875,-2 1.765625,-2.921875 z m 0,0"
               id="path136" />
          </g>
        </g>
        <g
           style="fill:#000000;fill-opacity:1"
           id="g85">
          <g
             id="use81"
             transform="translate(12.29,10.54)">
            <path
               style="stroke:none"
               d="M 2.046875,-4.609375 H 3.6875 V -5.3125 H 2.046875 V -6.828125 H 1.21875 V -5.3125 h -1 v 0.703125 H 1.1875 v 3.203125 c 0,0.703125 0.15625,1.53125 0.984375,1.53125 0.796875,0 1.359375,-0.28125 1.71875,-0.46875 L 3.71875,-1.046875 C 3.296875,-0.671875 2.859375,-0.625 2.640625,-0.625 c -0.53125,0 -0.59375,-0.5625 -0.59375,-0.984375 z m 0,0"
               id="path140" />
          </g>
          <g
             id="use83"
             transform="translate(16.517359,10.54)">
            <path
               style="stroke:none"
               d="m 1.8125,-2.625 c 0,-1.203125 0.90625,-1.984375 1.984375,-2 V -5.421875 C 2.71875,-5.421875 2.078125,-4.78125 1.75,-4.3125 V -5.359375 H 0.9375 V 0 h 0.875 z m 0,0"
               id="path144" />
          </g>
        </g>
        <g
           style="fill:#000000;fill-opacity:1"
           id="g89">
          <g
             id="use87"
             transform="translate(20.948999,6.1999998)">
            <path
               style="stroke:none"
               d="M 0.875,-5.953125 1.34375,-5.9375 c 0.21875,0.015625 0.3125,0.078125 0.3125,0.25 0,0.125 -0.03125,0.40625 -0.078125,0.671875 L 0.796875,-0.5 C 0.765625,-0.328125 0.65625,-0.265625 0.28125,-0.203125 L 0.234375,0.03125 0.5625,0.015625 C 0.8125,0 0.9375,0 1.046875,0 1.140625,0 1.375,0.015625 1.609375,0.015625 L 1.953125,0.03125 H 2.125 c 0.171875,0.015625 0.28125,0.015625 0.359375,0.015625 0.4375,0 0.859375,-0.125 1.28125,-0.375 C 4.46875,-0.75 4.875,-1.359375 4.875,-2.03125 4.875,-2.421875 4.75,-2.71875 4.5,-2.921875 4.265625,-3.109375 4,-3.1875 3.375,-3.28125 3.890625,-3.453125 4.109375,-3.5625 4.390625,-3.8125 c 0.421875,-0.34375 0.625,-0.765625 0.625,-1.234375 0,-0.734375 -0.515625,-1.15625 -1.421875,-1.15625 -0.015625,0 -0.109375,0 -0.234375,0 L 2.796875,-6.1875 C 2.6875,-6.171875 2.359375,-6.171875 2.25,-6.171875 c -0.171875,0 -0.453125,-0.015625 -0.890625,-0.03125 h -0.46875 z m 1.078125,2.90625 h 0.75 c 0.921875,0 1.375,0.375 1.375,1.15625 0,0.921875 -0.65625,1.578125 -1.546875,1.578125 -0.1875,0 -0.4375,0 -0.734375,-0.03125 -0.0625,0 -0.171875,-0.015625 -0.3125,-0.03125 z M 2.4375,-5.828125 c 0.09375,0 0.125,-0.015625 0.3125,-0.015625 0.1875,-0.015625 0.296875,-0.03125 0.40625,-0.03125 0.734375,0 1.09375,0.328125 1.09375,1 0,0.9375 -0.671875,1.5 -1.78125,1.5 H 2 Z m 0,0"
               id="path148" />
          </g>
        </g>
        <g
           clip-path="url(#clipPath5396)"
           clip-rule="nonzero"
           id="g95">
          <g
             style="fill:#000000;fill-opacity:1"
             id="g93">
            <g
               id="use91"
               transform="translate(27.187,10.54)">
              <path
                 style="stroke:none"
                 d="m 4.125,2.984375 c 0,-0.03125 0,-0.0625 -0.21875,-0.265625 -1.546875,-1.578125 -1.953125,-3.921875 -1.953125,-5.828125 0,-2.171875 0.46875,-4.34375 2,-5.890625 C 4.125,-9.15625 4.125,-9.171875 4.125,-9.21875 c 0,-0.078125 -0.046875,-0.125 -0.125,-0.125 -0.125,0 -1.25,0.84375 -1.984375,2.4375 -0.640625,1.359375 -0.78125,2.75 -0.78125,3.796875 0,0.96875 0.140625,2.46875 0.828125,3.875 0.734375,1.53125 1.8125,2.34375 1.9375,2.34375 0.078125,0 0.125,-0.03125 0.125,-0.125 z m 0,0"
                 id="path152" />
            </g>
          </g>
        </g>
        <g
           clip-path="url(#clipPath2842)"
           clip-rule="nonzero"
           id="g101">
          <g
             style="fill:#000000;fill-opacity:1"
             id="g99">
            <g
               id="use97"
               transform="translate(32.973,10.54)">
              <path
                 style="stroke:none"
                 d="M 1.375,-0.03125 1.484375,0 c 0.3125,0.09375 0.484375,0.125 0.625,0.125 0.65625,0 2.03125,-0.859375 2.546875,-1.625 0.5,-0.71875 0.90625,-2.03125 0.90625,-2.9375 0,-0.796875 -0.28125,-1.328125 -0.703125,-1.328125 -0.515625,0 -1.140625,0.3125 -1.765625,0.875 -0.484375,0.421875 -0.734375,0.734375 -1.15625,1.4375 L 2.21875,-4.875 c 0.046875,-0.203125 0.0625,-0.390625 0.0625,-0.53125 0,-0.21875 -0.09375,-0.359375 -0.265625,-0.359375 -0.25,0 -0.703125,0.25 -1.578125,0.890625 l -0.34375,0.234375 0.078125,0.234375 0.390625,-0.25 c 0.328125,-0.203125 0.46875,-0.265625 0.578125,-0.265625 0.109375,0 0.203125,0.109375 0.203125,0.265625 0,0.109375 -0.03125,0.34375 -0.046875,0.453125 L 0.59375,-0.09375 C 0.484375,0.625 0.25,1.703125 0.015625,2.78125 L -0.078125,3.234375 0,3.296875 C 0.25,3.21875 0.484375,3.15625 0.875,3.09375 Z m 0.328125,-1.9375 C 1.96875,-3.5 3.25,-5.0625 4.25,-5.0625 c 0.296875,0 0.453125,0.25 0.453125,0.8125 0,0.96875 -0.484375,2.390625 -1.125,3.296875 C 3.34375,-0.609375 2.96875,-0.4375 2.46875,-0.4375 2.109375,-0.4375 1.8125,-0.515625 1.5,-0.703125 Z m 0,0"
                 id="path156" />
            </g>
          </g>
        </g>
        <g
           style="fill:#000000;fill-opacity:1"
           id="g105">
          <g
             id="use103"
             transform="translate(39.099998,10.54)">
            <path
               style="stroke:none"
               d="M 2.4375,-1.46875 C 2.109375,-1.359375 1.90625,-1.296875 1.265625,-1.109375 1.1875,-0.203125 0.890625,0.578125 0.1875,1.71875 L 0.359375,1.859375 0.84375,1.625 c 0.96875,-1.25 1.421875,-2 1.765625,-2.921875 z m 0,0"
               id="path160" />
          </g>
        </g>
        <g
           style="fill:#000000;fill-opacity:1"
           id="g109">
          <g
             id="use107"
             transform="translate(44.230999,10.54)">
            <path
               style="stroke:none"
               d="m 3.96875,-5.0625 0.125,0.234375 C 4.203125,-4.90625 4.3125,-4.9375 4.421875,-4.9375 c 0.328125,0 0.515625,0.28125 0.515625,0.75 0,1.765625 -1.15625,3.71875 -2.21875,3.71875 -0.578125,0 -0.953125,-0.5 -0.953125,-1.28125 0,-1.25 0.46875,-2.34375 1.640625,-3.796875 l -0.125,-0.21875 C 3.046875,-5.65625 2.890625,-5.625 2.5625,-5.625 2.21875,-5.625 1.71875,-5.640625 1.375,-5.671875 L 1.234375,-5.6875 C 1.15625,-5.703125 1.09375,-5.703125 1.09375,-5.703125 c -0.15625,0 -0.25,0.03125 -0.390625,0.078125 C 0.53125,-5.296875 0.40625,-4.859375 0.25,-4.203125 h 0.265625 l 0.203125,-0.5 c 0.078125,-0.203125 0.328125,-0.34375 0.609375,-0.34375 0.0625,0 0.171875,0 0.328125,0.015625 0.09375,0.015625 0.171875,0.015625 0.328125,0.015625 0.25,0 0.4375,-0.015625 0.75,-0.046875 -1.328125,1.421875 -1.828125,2.421875 -1.828125,3.609375 0,0.921875 0.546875,1.578125 1.3125,1.578125 0.5,0 0.953125,-0.203125 1.515625,-0.703125 0.5625,-0.515625 1.125,-1.3125 1.5,-2.140625 0.265625,-0.59375 0.46875,-1.390625 0.46875,-1.875 0,-0.671875 -0.3125,-1.171875 -0.75,-1.171875 -0.140625,0 -0.296875,0.046875 -0.390625,0.140625 z m 0,0"
               id="path164" />
          </g>
        </g>
        <g
           clip-path="url(#clipPath7906)"
           clip-rule="nonzero"
           id="g115">
          <g
             style="fill:#000000;fill-opacity:1"
             id="g113">
            <g
               id="use111"
               transform="translate(50.507,10.54)">
              <path
                 style="stroke:none"
                 d="m 3.59375,-3.109375 c 0,-0.96875 -0.125,-2.484375 -0.8125,-3.890625 -0.75,-1.53125 -1.828125,-2.34375 -1.953125,-2.34375 -0.0625,0 -0.125,0.046875 -0.125,0.125 0,0.046875 0,0.0625 0.25,0.296875 1.21875,1.21875 1.921875,3.203125 1.921875,5.8125 0,2.125 -0.453125,4.3125 -2,5.890625 -0.171875,0.140625 -0.171875,0.171875 -0.171875,0.203125 0,0.078125 0.0625,0.125 0.125,0.125 0.125,0 1.25,-0.84375 1.984375,-2.421875 0.640625,-1.375 0.78125,-2.75 0.78125,-3.796875 z m 0,0"
                 id="path168" />
            </g>
          </g>
        </g>
        <g
           clip-path="url(#clipPath8834)"
           clip-rule="nonzero"
           id="g121">
          <g
             style="fill:#000000;fill-opacity:1"
             id="g119">
            <g
               id="use117"
               transform="translate(55.487,10.54)">
              <path
                 style="stroke:none"
                 d="M 0.609375,2.5625 C 1.4375,1.796875 1.78125,1.40625 2.15625,0.8125 2.875,-0.34375 3.265625,-1.734375 3.265625,-3.171875 c 0,-0.921875 -0.15625,-1.765625 -0.46875,-2.5625 -0.453125,-1.15625 -0.9375,-1.8125 -2.1875,-2.9375 L 0.375,-8.359375 c 0.875,1.015625 1.203125,1.578125 1.5,2.5625 0.234375,0.78125 0.359375,1.625 0.359375,2.625 0,1.015625 -0.125,1.921875 -0.375,2.78125 C 1.546875,0.6875 1.25,1.25 0.375,2.3125 Z m 0,0"
                 id="path172" />
            </g>
          </g>
        </g>
      </g>
    </g>
    <g
       inkscape:label=""
       transform="matrix(0.82050744,0,0,0.82050744,78.783761,129.57801)"
       id="g12994">
      <g
         id="g12992"
         transform="matrix(0.352778,0,0,0.352778,-0.148828,-0.00974551)">
        <g
           clip-path="url(#clipPath140)"
           clip-rule="nonzero"
           id="g12990">
          <g
             style="fill:#000000;fill-opacity:1"
             id="g12988">
            <g
               id="g12986"
               transform="translate(0,5.6370001)">
              <path
                 style="stroke:none"
                 d="m 4.703125,-0.78125 v 2.890625 c 0,0.75 -0.046875,0.828125 -0.453125,0.859375 L 3.5625,3 v 0.359375 c 1.390625,-0.03125 1.390625,-0.03125 1.65625,-0.03125 0.296875,0 0.625,0 1.46875,0.03125 V 3 L 6.140625,2.96875 C 5.734375,2.9375 5.703125,2.859375 5.703125,2.109375 v -5.90625 c 0,-0.75 0.0625,-1.203125 0.265625,-1.65625 L 5.75,-5.578125 5.15625,-5.21875 c -0.609375,-0.265625 -1.109375,-0.390625 -1.625,-0.390625 -0.359375,0 -0.765625,0.09375 -0.953125,0.203125 l -1,0.65625 c -0.765625,0.484375 -1.15625,1.265625 -1.15625,2.3125 0,1.5625 0.9375,2.578125 2.421875,2.578125 0.25,0 0.453125,-0.046875 0.609375,-0.140625 z m 0,-0.65625 c 0,0.171875 -0.296875,0.484375 -0.609375,0.65625 -0.296875,0.15625 -0.5625,0.25 -0.859375,0.25 -1.046875,0 -1.78125,-0.984375 -1.78125,-2.4375 0,-1.3125 0.671875,-2.078125 1.828125,-2.078125 0.578125,0 1,0.140625 1.421875,0.5 z m 0,0"
                 id="path12984" />
            </g>
          </g>
        </g>
      </g>
    </g>
    <g
       inkscape:label=""
       transform="matrix(0.91113287,0,0,0.91113287,101.00378,118.07662)"
       id="g13510">
      <g
         id="g13508"
         transform="matrix(0.352778,0,0,0.352778,-0.0881944,-0.00939276)">
        <g
           clip-path="url(#clipPath4716)"
           clip-rule="nonzero"
           id="g13506">
          <g
             style="fill:#000000;fill-opacity:1"
             id="g13504">
            <g
               id="g13502"
               transform="translate(0,5.6360002)">
              <path
                 style="stroke:none"
                 d="m 0.28125,-4.78125 h 0.4375 c 0.46875,0 0.53125,0.078125 0.53125,0.875 v 2.6875 c 0,0.75 -0.046875,0.84375 -0.453125,0.859375 L 0.25,-0.328125 V 0.03125 C 1.109375,0.015625 1.421875,0 1.71875,0 1.953125,0 1.953125,0 3.4375,0.03125 v -0.359375 l -0.625,-0.03125 C 2.265625,-0.390625 2.25,-0.4375 2.25,-1.21875 v -2.0625 c 0,-0.71875 0.46875,-1.3125 1.0625,-1.3125 0.359375,0 0.609375,0.171875 0.796875,0.546875 h 0.25 L 4.46875,-5.46875 C 4.34375,-5.5625 4.125,-5.609375 3.90625,-5.609375 c -0.359375,0 -0.734375,0.1875 -0.984375,0.5 L 2.25,-4.328125 V -5.5625 L 2.140625,-5.609375 c -0.609375,0.25 -1.234375,0.421875 -1.859375,0.5 z m 0,0"
                 id="path13500" />
            </g>
          </g>
        </g>
      </g>
    </g>
    <g
       inkscape:label=""
       transform="matrix(0.88141744,0,0,0.88141744,74.112927,110.67343)"
       id="g15047">
      <g
         id="g15045"
         transform="matrix(0.352778,0,0,0.352778,-0.330729,-0.00185208)">
        <g
           style="fill:#000000;fill-opacity:1"
           id="g62">
          <g
             id="g15018"
             transform="translate(0,9.349)">
            <path
               style="stroke:none"
               d="M 1.8125,-8.296875 H 0.9375 V 0 h 0.875 z m 0,0"
               id="path95" />
          </g>
          <g
             id="use56"
             transform="translate(2.753283,9.349)">
            <path
               style="stroke:none"
               d="m 1.890625,-8.109375 h -1.03125 v 1.015625 h 1.03125 z M 1.8125,-5.3125 H 0.9375 V 0 h 0.875 z m 0,0"
               id="path99" />
          </g>
          <g
             id="use58"
             transform="translate(5.5065651,9.349)">
            <path
               style="stroke:none"
               d="M 2.0625,-4.609375 H 3.34375 V -5.3125 H 2.046875 v -1.421875 c 0,-0.8125 0.671875,-0.96875 1.078125,-0.96875 0.40625,0 0.78125,0.140625 0.921875,0.203125 v -0.796875 c -0.078125,-0.015625 -0.46875,-0.125 -0.921875,-0.125 -1.125,0 -1.9375,0.875 -1.9375,2.03125 V -5.3125 h -0.875 v 0.703125 h 0.875 V 0 h 0.875 z m 0,0"
               id="path103" />
          </g>
          <g
             id="use60"
             transform="translate(9.0835609,9.349)">
            <path
               style="stroke:none"
               d="M 2.046875,-4.609375 H 3.6875 V -5.3125 H 2.046875 V -6.828125 H 1.21875 V -5.3125 h -1 v 0.703125 H 1.1875 v 3.203125 c 0,0.703125 0.15625,1.53125 0.984375,1.53125 0.796875,0 1.359375,-0.28125 1.71875,-0.46875 L 3.71875,-1.046875 C 3.296875,-0.671875 2.859375,-0.625 2.640625,-0.625 c -0.53125,0 -0.59375,-0.5625 -0.59375,-0.984375 z m 0,0"
               id="path107" />
          </g>
        </g>
        <g
           clip-path="url(#clipPath9431)"
           clip-rule="nonzero"
           id="g68">
          <g
             style="fill:#000000;fill-opacity:1"
             id="g66">
            <g
               id="use64"
               transform="translate(13.46,9.349)">
              <path
                 style="stroke:none"
                 d="m 4.125,2.984375 c 0,-0.03125 0,-0.0625 -0.21875,-0.265625 -1.546875,-1.578125 -1.953125,-3.921875 -1.953125,-5.828125 0,-2.171875 0.46875,-4.34375 2,-5.890625 C 4.125,-9.15625 4.125,-9.171875 4.125,-9.21875 c 0,-0.078125 -0.046875,-0.125 -0.125,-0.125 -0.125,0 -1.25,0.84375 -1.984375,2.4375 -0.640625,1.359375 -0.78125,2.75 -0.78125,3.796875 0,0.96875 0.140625,2.46875 0.828125,3.875 0.734375,1.53125 1.8125,2.34375 1.9375,2.34375 0.078125,0 0.125,-0.03125 0.125,-0.125 z m 0,0"
                 id="path111" />
            </g>
          </g>
        </g>
        <g
           style="fill:#000000;fill-opacity:1"
           id="g72">
          <g
             id="use70"
             transform="translate(18.589001,9.349)">
            <path
               style="stroke:none"
               d="M 3.984375,-1.15625 C 3.890625,-0.875 3.84375,-0.546875 3.84375,-0.375 c 0,0.296875 0.140625,0.484375 0.359375,0.484375 0.3125,0 0.75,-0.25 1.921875,-1.125 L 6,-1.234375 5.6875,-1.03125 C 5.40625,-0.84375 5.09375,-0.703125 4.953125,-0.703125 4.859375,-0.703125 4.8125,-0.78125 4.8125,-0.90625 4.8125,-1 4.828125,-1.140625 4.859375,-1.3125 L 4.875,-1.390625 c 0.28125,-1.296875 0.640625,-2.890625 1,-4.265625 l -0.078125,-0.109375 -0.8125,0.203125 -0.125,0.609375 c -0.171875,0.9375 -0.46875,1.75 -0.84375,2.3125 -0.703125,1.09375 -1.640625,1.9375 -2.109375,1.9375 -0.09375,0 -0.15625,-0.109375 -0.15625,-0.3125 0,-0.171875 0.015625,-0.328125 0.078125,-0.625 L 2.515625,-4.875 C 2.546875,-5.0625 2.5625,-5.234375 2.5625,-5.390625 c 0,-0.234375 -0.09375,-0.375 -0.265625,-0.375 -0.234375,0 -0.6875,0.25 -1.578125,0.890625 l -0.34375,0.234375 0.09375,0.234375 0.375,-0.25 C 1.1875,-4.859375 1.3125,-4.921875 1.421875,-4.921875 1.53125,-4.921875 1.625,-4.8125 1.625,-4.6875 c 0,0.046875 -0.015625,0.171875 -0.015625,0.21875 L 0.84375,-0.921875 c -0.015625,0.109375 -0.046875,0.390625 -0.046875,0.5625 0,0.28125 0.1875,0.484375 0.421875,0.484375 0.75,0 2.203125,-1.328125 3.203125,-2.984375 z m 0,0"
               id="path115" />
          </g>
        </g>
        <g
           style="fill:#000000;fill-opacity:1"
           id="g76">
          <g
             id="use74"
             transform="translate(25.386,9.349)">
            <path
               style="stroke:none"
               d="M 2.4375,-1.46875 C 2.109375,-1.359375 1.90625,-1.296875 1.265625,-1.109375 1.1875,-0.203125 0.890625,0.578125 0.1875,1.71875 L 0.359375,1.859375 0.84375,1.625 c 0.96875,-1.25 1.421875,-2 1.765625,-2.921875 z m 0,0"
               id="path119" />
          </g>
        </g>
        <g
           clip-path="url(#clipPath8624)"
           clip-rule="nonzero"
           id="g82">
          <g
             style="fill:#000000;fill-opacity:1"
             id="g80">
            <g
               id="use78"
               transform="translate(31.174,9.349)">
              <path
                 style="stroke:none"
                 d="M 1.375,-0.03125 1.484375,0 c 0.3125,0.09375 0.484375,0.125 0.625,0.125 0.65625,0 2.03125,-0.859375 2.546875,-1.625 0.5,-0.71875 0.90625,-2.03125 0.90625,-2.9375 0,-0.796875 -0.28125,-1.328125 -0.703125,-1.328125 -0.515625,0 -1.140625,0.3125 -1.765625,0.875 -0.484375,0.421875 -0.734375,0.734375 -1.15625,1.4375 L 2.21875,-4.875 c 0.046875,-0.203125 0.0625,-0.390625 0.0625,-0.53125 0,-0.21875 -0.09375,-0.359375 -0.265625,-0.359375 -0.25,0 -0.703125,0.25 -1.578125,0.890625 l -0.34375,0.234375 0.078125,0.234375 0.390625,-0.25 c 0.328125,-0.203125 0.46875,-0.265625 0.578125,-0.265625 0.109375,0 0.203125,0.109375 0.203125,0.265625 0,0.109375 -0.03125,0.34375 -0.046875,0.453125 L 0.59375,-0.09375 C 0.484375,0.625 0.25,1.703125 0.015625,2.78125 L -0.078125,3.234375 0,3.296875 C 0.25,3.21875 0.484375,3.15625 0.875,3.09375 Z m 0.328125,-1.9375 C 1.96875,-3.5 3.25,-5.0625 4.25,-5.0625 c 0.296875,0 0.453125,0.25 0.453125,0.8125 0,0.96875 -0.484375,2.390625 -1.125,3.296875 C 3.34375,-0.609375 2.96875,-0.4375 2.46875,-0.4375 2.109375,-0.4375 1.8125,-0.515625 1.5,-0.703125 Z m 0,0"
                 id="path123" />
            </g>
          </g>
        </g>
        <g
           clip-path="url(#clipPath8723)"
           clip-rule="nonzero"
           id="g88">
          <g
             style="fill:#000000;fill-opacity:1"
             id="g86">
            <g
               id="use84"
               transform="translate(37.450001,9.349)">
              <path
                 style="stroke:none"
                 d="m 3.59375,-3.109375 c 0,-0.96875 -0.125,-2.484375 -0.8125,-3.890625 -0.75,-1.53125 -1.828125,-2.34375 -1.953125,-2.34375 -0.0625,0 -0.125,0.046875 -0.125,0.125 0,0.046875 0,0.0625 0.25,0.296875 1.21875,1.21875 1.921875,3.203125 1.921875,5.8125 0,2.125 -0.453125,4.3125 -2,5.890625 -0.171875,0.140625 -0.171875,0.171875 -0.171875,0.203125 0,0.078125 0.0625,0.125 0.125,0.125 0.125,0 1.25,-0.84375 1.984375,-2.421875 0.640625,-1.375 0.78125,-2.75 0.78125,-3.796875 z m 0,0"
                 id="path127" />
            </g>
          </g>
        </g>
      </g>
    </g>
    <path
       style="fill:none;stroke:#000000;stroke-width:0.264583px;stroke-linecap:butt;stroke-linejoin:miter;stroke-opacity:1"
       d="m 61.689612,126.0231 c 8.894921,-5.51115 18.652053,-9.99495 28.833124,-12.03019 2.68247,-0.53624 5.572593,-0.16217 8.068014,-0.661"
       id="path15453" />
    <path
       style="fill:none;stroke:#000000;stroke-width:0.264583px;stroke-linecap:butt;stroke-linejoin:miter;stroke-opacity:1"
       d="m 61.821871,125.89089 c 0.787572,-0.0114 1.518151,0.16382 1.983923,0.3966"
       id="path15457" />
    <path
       style="fill:none;stroke:#000000;stroke-width:0.264583px;stroke-linecap:butt;stroke-linejoin:miter;stroke-opacity:1"
       d="m 64.467091,126.4197 c 0.989827,0.16034 1.909688,0.26439 2.909771,0.26439"
       id="path15459" />
    <path
       style="fill:none;stroke:#000000;stroke-width:0.264583px;stroke-linecap:butt;stroke-linejoin:miter;stroke-opacity:1"
       d="m 67.773674,126.94849 c 0.816821,0.009 1.538642,0.26441 2.380699,0.26441"
       id="path15461" />
    <path
       style="fill:none;stroke:#000000;stroke-width:0.264583px;stroke-linecap:butt;stroke-linejoin:miter;stroke-opacity:1"
       d="m 70.683442,127.4773 c 0.896154,-0.0125 1.792322,-0.0383 2.645222,0.1322"
       id="path15463" />
    <path
       style="fill:none;stroke:#000000;stroke-width:0.264583px;stroke-linecap:butt;stroke-linejoin:miter;stroke-opacity:1"
       d="m 74.12225,127.8739 c 0.78568,0.0719 1.493438,0.11347 2.248442,0.26439"
       id="path15469" />
    <path
       style="fill:none;stroke:#000000;stroke-width:0.264583px;stroke-linecap:butt;stroke-linejoin:miter;stroke-opacity:1"
       d="m 77.296541,128.2705 c 0.88175,0 1.763501,0 2.645251,0"
       id="path15471" />
    <path
       style="fill:none;stroke:#000000;stroke-width:0.264583px;stroke-linecap:butt;stroke-linejoin:miter;stroke-opacity:1"
       d="m 80.999869,128.40269 c 0.834006,0.15499 1.733989,0.27169 2.248471,0.5288"
       id="path15473" />
    <path
       style="fill:none;stroke:#000000;stroke-width:0.264583px;stroke-linecap:butt;stroke-linejoin:miter;stroke-opacity:1"
       d="m 83.909637,129.32809 c 0.969926,0 1.939848,0 2.909771,0"
       id="path15475" />
    <path
       style="fill:none;stroke:#000000;stroke-width:0.264583px;stroke-linecap:butt;stroke-linejoin:miter;stroke-opacity:1"
       d="m 87.480705,129.46029 c 0.833747,-0.17741 1.603785,-0.10907 2.380734,-0.2644"
       id="path15477" />
    <path
       style="fill:none;stroke:#000000;stroke-width:0.264583px;stroke-linecap:butt;stroke-linejoin:miter;stroke-opacity:1"
       d="m 90.787288,129.19589 c 0.739232,-0.0673 1.415891,-0.1244 2.116182,-0.2644"
       id="path15479" />
    <path
       style="fill:none;stroke:#000000;stroke-width:0.264583px;stroke-linecap:butt;stroke-linejoin:miter;stroke-opacity:1"
       d="m 94.093836,129.0637 c 0.613912,0.0669 1.145513,-0.16881 1.719403,-0.26441"
       id="path15481" />
    <path
       style="fill:none;stroke:#000000;stroke-width:0.264583px;stroke-linecap:butt;stroke-linejoin:miter;stroke-opacity:1"
       d="m 96.474535,128.93149 c 0.790996,0.18001 1.56445,0 2.380734,0"
       id="path15483" />
    <g
       inkscape:label=""
       transform="translate(80.108996,154.16557)"
       id="g17168">
      <g
         id="g17166"
         transform="matrix(0.352778,0,0,0.352778,-0.257131,-0.00507125)">
        <g
           clip-path="url(#clipPath498)"
           clip-rule="nonzero"
           id="g17164">
          <g
             style="fill:#000000;fill-opacity:1"
             id="g17162">
            <g
               id="g17160"
               transform="translate(0.80699998,5.7800002)">
              <path
                 style="stroke:none"
                 d="M 1.375,-0.03125 1.484375,0 c 0.3125,0.09375 0.484375,0.125 0.625,0.125 0.65625,0 2.03125,-0.859375 2.546875,-1.625 0.5,-0.71875 0.90625,-2.03125 0.90625,-2.9375 0,-0.796875 -0.28125,-1.328125 -0.703125,-1.328125 -0.515625,0 -1.140625,0.3125 -1.765625,0.875 -0.484375,0.421875 -0.734375,0.734375 -1.15625,1.4375 L 2.21875,-4.875 c 0.046875,-0.203125 0.0625,-0.390625 0.0625,-0.53125 0,-0.21875 -0.09375,-0.359375 -0.265625,-0.359375 -0.25,0 -0.703125,0.25 -1.578125,0.890625 l -0.34375,0.234375 0.078125,0.234375 0.390625,-0.25 c 0.328125,-0.203125 0.46875,-0.265625 0.578125,-0.265625 0.109375,0 0.203125,0.109375 0.203125,0.265625 0,0.109375 -0.03125,0.34375 -0.046875,0.453125 L 0.59375,-0.09375 C 0.484375,0.625 0.25,1.703125 0.015625,2.78125 L -0.078125,3.234375 0,3.296875 C 0.25,3.21875 0.484375,3.15625 0.875,3.09375 Z m 0.328125,-1.9375 C 1.96875,-3.5 3.25,-5.0625 4.25,-5.0625 c 0.296875,0 0.453125,0.25 0.453125,0.8125 0,0.96875 -0.484375,2.390625 -1.125,3.296875 C 3.34375,-0.609375 2.96875,-0.4375 2.46875,-0.4375 2.109375,-0.4375 1.8125,-0.515625 1.5,-0.703125 Z m 0,0"
                 id="path17158" />
            </g>
          </g>
        </g>
      </g>
    </g>
  </g>
</svg>
