<?xml version="1.0" encoding="UTF-8" standalone="no"?>
<!-- Created with Inkscape (http://www.inkscape.org/) -->

<svg
   width="210mm"
   height="297mm"
   viewBox="0 0 210 297"
   version="1.1"
   id="svg5"
   sodipodi:docname="fibras.svg"
   inkscape:version="1.2.1 (9c6d41e410, 2022-07-14)"
   xmlns:inkscape="http://www.inkscape.org/namespaces/inkscape"
   xmlns:sodipodi="http://sodipodi.sourceforge.net/DTD/sodipodi-0.dtd"
   xmlns="http://www.w3.org/2000/svg"
   xmlns:svg="http://www.w3.org/2000/svg">
  <sodipodi:namedview
     id="namedview7"
     pagecolor="#ffffff"
     bordercolor="#666666"
     borderopacity="1.0"
     inkscape:showpageshadow="2"
     inkscape:pageopacity="0.0"
     inkscape:pagecheckerboard="0"
     inkscape:deskcolor="#d1d1d1"
     inkscape:document-units="mm"
     showgrid="false"
     inkscape:zoom="2"
     inkscape:cx="366.75"
     inkscape:cy="481.25"
     inkscape:window-width="1920"
     inkscape:window-height="1031"
     inkscape:window-x="2560"
     inkscape:window-y="49"
     inkscape:window-maximized="1"
     inkscape:current-layer="layer1" />
  <defs
     id="defs2">
    <inkscape:path-effect
       effect="bspline"
       id="path-effect835"
       is_visible="true"
       lpeversion="1"
       weight="33.333333"
       steps="2"
       helper_size="0"
       apply_no_weight="true"
       apply_with_weight="true"
       only_selected="false" />
    <inkscape:path-effect
       effect="bspline"
       id="path-effect831"
       is_visible="true"
       lpeversion="1"
       weight="33.333333"
       steps="2"
       helper_size="0"
       apply_no_weight="true"
       apply_with_weight="true"
       only_selected="false" />
    <inkscape:path-effect
       effect="bspline"
       id="path-effect827"
       is_visible="true"
       lpeversion="1"
       weight="33.333333"
       steps="2"
       helper_size="0"
       apply_no_weight="true"
       apply_with_weight="true"
       only_selected="false" />
    <inkscape:path-effect
       effect="bspline"
       id="path-effect823"
       is_visible="true"
       lpeversion="1"
       weight="33.333333"
       steps="2"
       helper_size="0"
       apply_no_weight="true"
       apply_with_weight="true"
       only_selected="false" />
    <inkscape:path-effect
       effect="bspline"
       id="path-effect819"
       is_visible="true"
       lpeversion="1"
       weight="33.333333"
       steps="2"
       helper_size="0"
       apply_no_weight="true"
       apply_with_weight="true"
       only_selected="false" />
    <clipPath
       id="clip1">
      <path
         d="M 0,0 H 7.75 V 7 H 0 Z m 0,0"
         id="path10" />
    </clipPath>
    <clipPath
       id="clipPath5725">
      <path
         d="M 0,0 H 7.941406 V 7.0625 H 0 Z m 0,0"
         id="path5723" />
    </clipPath>
    <clipPath
       id="clipPath8397">
      <path
         d="m 7,0 h 4 V 10.390625 H 7 Z m 0,0"
         id="path22" />
    </clipPath>
    <clipPath
       id="clip2">
      <path
         d="m 16,0 h 3 v 10.390625 h -3 z m 0,0"
         id="path25" />
    </clipPath>
    <clipPath
       id="clipPath10378">
      <path
         d="m 9,0 h 4 V 12.46875 H 9 Z m 0,0"
         id="path10376" />
    </clipPath>
    <clipPath
       id="clipPath10382">
      <path
         d="m 19,0 h 4 v 12.46875 h -4 z m 0,0"
         id="path10380" />
    </clipPath>
    <clipPath
       id="clipPath12005">
      <path
         d="M 0,0 H 21 V 11.277344 H 0 Z m 0,0"
         id="path19" />
    </clipPath>
    <clipPath
       id="clipPath13260">
      <path
         d="m 9,0 h 4 V 12.46875 H 9 Z m 0,0"
         id="path13258" />
    </clipPath>
    <clipPath
       id="clipPath13264">
      <path
         d="m 19,0 h 4 v 12.46875 h -4 z m 0,0"
         id="path13262" />
    </clipPath>
    <clipPath
       id="clipPath5350">
      <path
         d="m 9,0 h 4 V 12.46875 H 9 Z m 0,0"
         id="path6519" />
    </clipPath>
    <clipPath
       id="clipPath3068">
      <path
         d="m 19,0 h 4 v 12.46875 h -4 z m 0,0"
         id="path617" />
    </clipPath>
    <clipPath
       id="clipPath2386">
      <path
         d="m 9,0 h 4 V 12.46875 H 9 Z m 0,0"
         id="path7331" />
    </clipPath>
    <clipPath
       id="clipPath7084">
      <path
         d="m 19,0 h 4 v 12.46875 h -4 z m 0,0"
         id="path5085" />
    </clipPath>
    <clipPath
       id="clipPath5348">
      <path
         d="m 9,0 h 4 V 12.46875 H 9 Z m 0,0"
         id="path4968" />
    </clipPath>
    <clipPath
       id="clipPath5986">
      <path
         d="m 18,0 h 4 v 12.46875 h -4 z m 0,0"
         id="path9910" />
    </clipPath>
    <clipPath
       id="clipPath1037">
      <path
         d="M 0,0 H 4.820312 V 4.910156 H 0 Z m 0,0"
         id="path1250" />
    </clipPath>
    <clipPath
       id="clipPath5085">
      <path
         d="M 0,0 H 5 V 5.378906 H 0 Z m 0,0"
         id="path6696" />
    </clipPath>
    <clipPath
       id="clipPath3060">
      <path
         d="M 0,0 H 5.785156 V 5.894531 H 0 Z m 0,0"
         id="path9017" />
    </clipPath>
    <clipPath
       id="clipPath3395">
      <path
         d="M 0,0 H 5.835938 V 8.816406 H 0 Z m 0,0"
         id="path753" />
    </clipPath>
    <clipPath
       id="clipPath170">
      <path
         d="M 0,0 H 5 V 5.894531 H 0 Z m 0,0"
         id="path2766" />
    </clipPath>
  </defs>
  <g
     inkscape:label="Layer 1"
     inkscape:groupmode="layer"
     id="layer1">
    <path
       style="fill:none;stroke:#000000;stroke-width:0.264583px;stroke-linecap:butt;stroke-linejoin:miter;stroke-opacity:1"
       d="m 65.790169,145.46245 c -4.494869,0.24103 -19.076733,2.495 -19.839323,8.59299 -0.744233,5.95118 10.697244,6.53906 14.152041,6.74219 6.551268,0.3852 13.15317,0.0113 19.707066,0.3966 10.879566,0.63964 28.624357,2.42637 38.620547,-2.1152 13.98642,-6.35445 -15.21592,-12.16239 -18.781221,-12.16239 -4.143669,0 -8.227854,-0.74049 -12.300381,-1.322 -7.083036,-1.01137 -14.623923,-0.13219 -21.558729,-0.13219 z"
       id="path2652" />
    <path
       style="fill:none;stroke:#000000;stroke-width:0.264583px;stroke-linecap:butt;stroke-linejoin:miter;stroke-opacity:1"
       d="m 61.160445,152.32518 c 1.332984,-9.83608 0.600205,-19.20976 -1.322626,-28.81957 -5.043958,-3.91388 -5.371995,-21.77973 -3.571066,-27.629772 0.300837,-0.977222 1.973633,-5.732095 3.703327,-5.155794 1.63351,0.544254 2.031346,3.714229 2.116182,5.155794 0.20858,3.544266 1.093461,25.124452 -2.248443,27.629772"
       id="path3398" />
    <path
       style="fill:none;stroke:#000000;stroke-width:0.264583px;stroke-linecap:butt;stroke-linejoin:miter;stroke-opacity:1"
       d="m 73.460826,156.02677 c -1.387364,-9.50824 2.55461,-20.67306 -1.851697,-29.48056 -5.587807,-1.93828 -4.632769,-24.96074 1.587178,-22.47398 2.935747,1.17372 1.803463,15.87622 0.793557,18.90458 -0.513422,1.53958 -1.723255,2.25518 -2.380735,3.5694"
       id="path3402" />
    <path
       style="fill:none;stroke:#000000;stroke-width:0.264583px;stroke-linecap:butt;stroke-linejoin:miter;stroke-opacity:1"
       d="m 84.835356,149.28458 c 0.474618,-9.53137 3.317581,-19.9069 1.454886,-29.21617 -5.037483,-5.36998 -6.343915,-18.03989 -0.396777,-23.134973 0.670272,-0.574242 1.685094,-1.537413 2.64522,-1.057599 2.463265,1.230993 1.924209,19.420582 0.264551,22.738382 -0.511951,1.02343 -1.655555,1.02567 -2.512994,1.45419"
       id="path3408" />
    <path
       style="fill:none;stroke:#000000;stroke-width:0.264583px;stroke-linecap:butt;stroke-linejoin:miter;stroke-opacity:1"
       d="m 95.284072,155.76237 c 0.820568,-5.13206 1.322628,-12.01307 1.322628,-16.52498 -2.186094,-0.91008 -2.512992,-3.9427 -2.512992,-6.08119 0,-1.41976 0.02383,-2.82142 0.132259,-4.2304 0.152951,-1.98747 0.561112,-3.3371 1.983923,-4.75919 4.17186,-4.16978 4.99063,15.98916 0.39681,15.07078"
       id="path3410" />
    <path
       style="fill:none;stroke:#000000;stroke-width:0.264583px;stroke-linecap:butt;stroke-linejoin:miter;stroke-opacity:1"
       d="m 109.96515,157.34877 c 0.92558,-4.74285 2.73966,-32.95575 0.13226,-35.56176 -0.76411,-1.14565 -0.19111,-0.50683 -0.92581,-1.0576 -5.17166,-3.87689 -4.11691,-13.3517 -1.05811,-18.24358 0.58503,-0.93563 2.78514,-3.987882 4.36466,-3.040596 2.01354,1.207586 2.066,17.533896 0.52903,20.094376 -0.67788,1.12932 -1.92755,1.51112 -2.90977,2.2474"
       id="path3412" />
    <circle
       style="fill:#000000;fill-opacity:1;stroke-width:0.264583"
       id="path3416"
       cx="59.242863"
       cy="96.338539"
       r="0.46269986" />
    <circle
       style="fill:#000000;fill-opacity:1;stroke-width:0.264583"
       id="path3416-3"
       cx="61.118752"
       cy="152.2309"
       r="0.46269986" />
    <circle
       style="fill:#000000;fill-opacity:1;stroke-width:0.264583"
       id="path3416-6"
       cx="73.288132"
       cy="155.83362"
       r="0.46269986" />
    <circle
       style="fill:#000000;fill-opacity:1;stroke-width:0.264583"
       id="path3416-7"
       cx="84.665054"
       cy="149.49417"
       r="0.46269986" />
    <circle
       style="fill:#000000;fill-opacity:1;stroke-width:0.264583"
       id="path3416-5"
       cx="95.116997"
       cy="155.57271"
       r="0.46269986" />
    <circle
       style="fill:#000000;fill-opacity:1;stroke-width:0.264583"
       id="path3416-35"
       cx="110.19586"
       cy="157.16212"
       r="0.46269986" />
    <circle
       style="fill:#000000;fill-opacity:1;stroke-width:0.264583"
       id="path3416-62"
       cx="70.908333"
       cy="115.8875"
       r="0.46269986" />
    <circle
       style="fill:#000000;fill-opacity:1;stroke-width:0.264583"
       id="path3416-9"
       cx="85.194031"
       cy="109.93796"
       r="0.46269986" />
    <circle
       style="fill:#000000;fill-opacity:1;stroke-width:0.264583"
       id="path3416-1"
       cx="110.06667"
       cy="113.24167"
       r="0.46269986" />
    <circle
       style="fill:#000000;fill-opacity:1;stroke-width:0.264583"
       id="path3416-2"
       cx="111.38959"
       cy="105.30417"
       r="0.46269986" />
    <circle
       style="fill:#000000;fill-opacity:1;stroke-width:0.264583"
       id="path3416-70"
       cx="86.254166"
       cy="102.12917"
       r="0.46269986" />
    <circle
       style="fill:#000000;fill-opacity:1;stroke-width:0.264583"
       id="path3416-93"
       cx="87.180206"
       cy="114.82917"
       r="0.46269986" />
    <circle
       style="fill:#000000;fill-opacity:1;stroke-width:0.264583"
       id="path3416-60"
       cx="88.238541"
       cy="107.68542"
       r="0.46269986" />
    <circle
       style="fill:#000000;fill-opacity:1;stroke-width:0.264583"
       id="path3416-626"
       cx="70.114586"
       cy="110.19896"
       r="0.46269986" />
    <circle
       style="fill:#000000;fill-opacity:1;stroke-width:0.264583"
       id="path3416-18"
       cx="70.643753"
       cy="121.31145"
       r="0.46269986" />
    <circle
       style="fill:#000000;fill-opacity:1;stroke-width:0.264583"
       id="path3416-79"
       cx="73.157295"
       cy="113.50625"
       r="0.46269986" />
    <circle
       style="fill:#000000;fill-opacity:1;stroke-width:0.264583"
       id="path3416-20"
       cx="59.795834"
       cy="113.10938"
       r="0.46269986" />
    <circle
       style="fill:#000000;fill-opacity:1;stroke-width:0.264583"
       id="path3416-23"
       cx="58.737499"
       cy="117.60729"
       r="0.46269986" />
    <circle
       style="fill:#000000;fill-opacity:1;stroke-width:0.264583"
       id="path3416-75"
       cx="57.943748"
       cy="108.47916"
       r="0.46269986" />
    <circle
       style="fill:#000000;fill-opacity:1;stroke-width:0.264583"
       id="path3416-92"
       cx="59.002083"
       cy="101.86459"
       r="0.46269986" />
    <circle
       style="fill:#000000;fill-opacity:1;stroke-width:0.264583"
       id="path3416-28"
       cx="108.21458"
       cy="108.74375"
       r="0.46269986" />
    <circle
       style="fill:#000000;fill-opacity:1;stroke-width:0.264583"
       id="path3416-97"
       cx="110.59583"
       cy="117.475"
       r="0.46269986" />
    <circle
       style="fill:#000000;fill-opacity:1;stroke-width:0.264583"
       id="path3416-36"
       cx="96.969795"
       cy="127.52917"
       r="0.46269986" />
    <circle
       style="fill:#000000;fill-opacity:1;stroke-width:0.264583"
       id="path3416-12"
       cx="95.646873"
       cy="132.15938"
       r="0.46269986" />
    <circle
       style="fill:#000000;fill-opacity:1;stroke-width:0.264583"
       id="path3416-931"
       cx="97.366669"
       cy="136.26042"
       r="0.46269986" />
    <circle
       style="fill:#000000;fill-opacity:1;stroke-width:0.264583"
       id="path3416-94"
       cx="97.366798"
       cy="130.83708"
       r="0.46269986" />
    <g
       inkscape:label=""
       transform="matrix(1.8571423,0,0,1.8571423,41.836696,146.17979)"
       id="g5776">
      <g
         id="g5774"
         transform="matrix(0.352778,0,0,0.352778,-0.153635,0.00467426)">
        <g
           clip-path="url(#clip1)"
           clip-rule="nonzero"
           id="g5772">
          <g
             style="fill:#000000;fill-opacity:1"
             id="g5770">
            <g
               id="g5768"
               transform="translate(0.62300003,7.0180001)">
              <path
                 style="stroke:none"
                 d="m 4.609375,-7.03125 -3.71875,5.921875 C 0.53125,-0.5625 0.34375,-0.40625 0.015625,-0.3125 L -0.1875,-0.265625 V 0.03125 C 0.734375,0 0.734375,0 0.921875,0 1.109375,0 1.140625,0 2,0.03125 V -0.25 L 1.46875,-0.28125 C 1.3125,-0.296875 1.171875,-0.375 1.171875,-0.46875 c 0,-0.078125 0.0625,-0.21875 0.25,-0.546875 l 1.015625,-1.75 h 2.453125 l 0.25,1.875 v 0.03125 c 0,0.015625 0.015625,0.046875 0.015625,0.09375 0.015625,0.078125 0.03125,0.171875 0.03125,0.21875 0,0.15625 -0.15625,0.25 -0.4375,0.265625 L 4.3125,-0.25 V 0.03125 C 5.328125,0 5.328125,0 5.53125,0 5.734375,0 5.734375,0 6.75,0.03125 V -0.25 L 6.484375,-0.28125 C 6.015625,-0.34375 6.015625,-0.34375 5.9375,-0.796875 L 5.0625,-7.03125 Z M 4.46875,-5.984375 4.84375,-3.125 H 2.6875 Z m 0,0"
                 id="path5766" />
            </g>
          </g>
        </g>
      </g>
    </g>
    <g
       inkscape:label=""
       transform="translate(46.379496,92.032834)"
       id="g5901">
      <g
         id="surface1"
         transform="matrix(0.352778,0,0,0.352778,-0.247474,-0.00185208)">
        <g
           style="fill:#000000;fill-opacity:1"
           id="g32">
          <g
             id="use30"
             transform="translate(0.389,9.349)">
            <path
               style="stroke:none"
               d="m 1.15625,-7.9375 0.640625,0.03125 c 0.28125,0 0.421875,0.09375 0.421875,0.3125 0,0.171875 -0.0625,0.546875 -0.109375,0.90625 L 1.0625,-0.65625 C 1.015625,-0.4375 0.875,-0.359375 0.375,-0.28125 L 0.3125,0.03125 H 0.75 C 1.078125,0 1.25,0 1.40625,0 c 0.125,0 0.4375,0.015625 0.75,0.03125 h 0.4375 L 2.828125,0.046875 C 3.0625,0.0625 3.21875,0.078125 3.3125,0.078125 c 0.578125,0 1.140625,-0.171875 1.703125,-0.515625 0.953125,-0.546875 1.46875,-1.375 1.46875,-2.28125 C 6.484375,-3.234375 6.328125,-3.625 6,-3.890625 5.6875,-4.140625 5.328125,-4.25 4.5,-4.359375 5.1875,-4.609375 5.484375,-4.75 5.859375,-5.078125 6.40625,-5.546875 6.6875,-6.109375 6.6875,-6.71875 c 0,-0.984375 -0.703125,-1.546875 -1.890625,-1.546875 -0.03125,0 -0.140625,0 -0.328125,0 L 3.71875,-8.25 C 3.578125,-8.234375 3.140625,-8.234375 3,-8.234375 c -0.234375,0 -0.59375,-0.015625 -1.1875,-0.03125 h -0.625 z m 1.4375,3.875 h 1.015625 c 1.234375,0 1.828125,0.5 1.828125,1.546875 0,1.21875 -0.875,2.109375 -2.0625,2.109375 -0.25,0 -0.59375,-0.015625 -0.984375,-0.046875 C 2.3125,-0.46875 2.171875,-0.484375 1.984375,-0.484375 Z M 3.25,-7.765625 c 0.125,0 0.15625,-0.015625 0.40625,-0.03125 0.25,-0.015625 0.40625,-0.03125 0.546875,-0.03125 0.96875,0 1.453125,0.421875 1.453125,1.328125 0,1.25 -0.890625,2 -2.375,2 H 2.671875 Z m 0,0"
               id="path55" />
          </g>
        </g>
        <g
           clip-path="url(#clipPath5350)"
           clip-rule="nonzero"
           id="g38">
          <g
             style="fill:#000000;fill-opacity:1"
             id="g36">
            <g
               id="use34"
               transform="translate(7.9920001,9.349)">
              <path
                 style="stroke:none"
                 d="m 4.125,2.984375 c 0,-0.03125 0,-0.0625 -0.21875,-0.265625 -1.546875,-1.578125 -1.953125,-3.921875 -1.953125,-5.828125 0,-2.171875 0.46875,-4.34375 2,-5.890625 C 4.125,-9.15625 4.125,-9.171875 4.125,-9.21875 c 0,-0.078125 -0.046875,-0.125 -0.125,-0.125 -0.125,0 -1.25,0.84375 -1.984375,2.4375 -0.640625,1.359375 -0.78125,2.75 -0.78125,3.796875 0,0.96875 0.140625,2.46875 0.828125,3.875 0.734375,1.53125 1.8125,2.34375 1.9375,2.34375 0.078125,0 0.125,-0.03125 0.125,-0.125 z m 0,0"
                 id="path59" />
            </g>
          </g>
        </g>
        <g
           style="fill:#000000;fill-opacity:1"
           id="g42">
          <g
             id="use40"
             transform="translate(13.3,9.349)">
            <path
               style="stroke:none"
               d="M 4.8125,-5.640625 4.6875,-5.75 4.296875,-5.53125 c -0.5,-0.1875 -0.703125,-0.234375 -1.015625,-0.234375 -0.34375,0 -0.578125,0.0625 -0.90625,0.21875 -0.734375,0.375 -1.125,0.734375 -1.4375,1.3125 -0.515625,1.0625 -0.890625,2.5 -0.890625,3.4375 0,0.515625 0.1875,0.921875 0.40625,0.921875 0.265625,0 0.71875,-0.25 1.171875,-0.65625 0.5,-0.453125 0.96875,-1 1.609375,-1.90625 l -0.34375,1.515625 C 2.84375,-0.71875 2.828125,-0.5 2.828125,-0.3125 c 0,0.265625 0.09375,0.421875 0.28125,0.421875 0.265625,0 0.765625,-0.3125 1.75,-1.125 l -0.09375,-0.25 c -0.0625,0.0625 -0.109375,0.078125 -0.15625,0.125 -0.375,0.328125 -0.5625,0.4375 -0.734375,0.4375 -0.109375,0 -0.1875,-0.109375 -0.1875,-0.28125 0,-0.0625 0,-0.09375 0.015625,-0.125 z m -1,0.6875 c -0.265625,1.3125 -0.484375,1.921875 -0.890625,2.546875 -0.6875,1 -1.421875,1.703125 -1.796875,1.703125 -0.140625,0 -0.21875,-0.15625 -0.21875,-0.484375 0,-0.765625 0.34375,-2.15625 0.75,-3.109375 0.296875,-0.65625 0.5625,-0.875 1.140625,-0.875 0.28125,0 0.484375,0.046875 1.015625,0.21875 z m 0,0"
               id="path63" />
          </g>
        </g>
        <g
           clip-path="url(#clipPath3068)"
           clip-rule="nonzero"
           id="g48">
          <g
             style="fill:#000000;fill-opacity:1"
             id="g46">
            <g
               id="use44"
               transform="translate(18.907,9.349)">
              <path
                 style="stroke:none"
                 d="m 3.59375,-3.109375 c 0,-0.96875 -0.125,-2.484375 -0.8125,-3.890625 -0.75,-1.53125 -1.828125,-2.34375 -1.953125,-2.34375 -0.0625,0 -0.125,0.046875 -0.125,0.125 0,0.046875 0,0.0625 0.25,0.296875 1.21875,1.21875 1.921875,3.203125 1.921875,5.8125 0,2.125 -0.453125,4.3125 -2,5.890625 -0.171875,0.140625 -0.171875,0.171875 -0.171875,0.203125 0,0.078125 0.0625,0.125 0.125,0.125 0.125,0 1.25,-0.84375 1.984375,-2.421875 0.640625,-1.375 0.78125,-2.75 0.78125,-3.796875 z m 0,0"
                 id="path67" />
            </g>
          </g>
        </g>
      </g>
    </g>
    <g
       inkscape:label=""
       transform="translate(91.084099,94.412433)"
       id="g6127">
      <g
         id="g6125"
         transform="matrix(0.352778,0,0,0.352778,-0.247474,-0.00185208)">
        <g
           style="fill:#000000;fill-opacity:1"
           id="g6101">
          <g
             id="g6099"
             transform="translate(0.389,9.349)">
            <path
               style="stroke:none"
               d="m 1.15625,-7.9375 0.640625,0.03125 c 0.28125,0 0.421875,0.09375 0.421875,0.3125 0,0.171875 -0.0625,0.546875 -0.109375,0.90625 L 1.0625,-0.65625 C 1.015625,-0.4375 0.875,-0.359375 0.375,-0.28125 L 0.3125,0.03125 H 0.75 C 1.078125,0 1.25,0 1.40625,0 c 0.125,0 0.4375,0.015625 0.75,0.03125 h 0.4375 L 2.828125,0.046875 C 3.0625,0.0625 3.21875,0.078125 3.3125,0.078125 c 0.578125,0 1.140625,-0.171875 1.703125,-0.515625 0.953125,-0.546875 1.46875,-1.375 1.46875,-2.28125 C 6.484375,-3.234375 6.328125,-3.625 6,-3.890625 5.6875,-4.140625 5.328125,-4.25 4.5,-4.359375 5.1875,-4.609375 5.484375,-4.75 5.859375,-5.078125 6.40625,-5.546875 6.6875,-6.109375 6.6875,-6.71875 c 0,-0.984375 -0.703125,-1.546875 -1.890625,-1.546875 -0.03125,0 -0.140625,0 -0.328125,0 L 3.71875,-8.25 C 3.578125,-8.234375 3.140625,-8.234375 3,-8.234375 c -0.234375,0 -0.59375,-0.015625 -1.1875,-0.03125 h -0.625 z m 1.4375,3.875 h 1.015625 c 1.234375,0 1.828125,0.5 1.828125,1.546875 0,1.21875 -0.875,2.109375 -2.0625,2.109375 -0.25,0 -0.59375,-0.015625 -0.984375,-0.046875 C 2.3125,-0.46875 2.171875,-0.484375 1.984375,-0.484375 Z M 3.25,-7.765625 c 0.125,0 0.15625,-0.015625 0.40625,-0.03125 0.25,-0.015625 0.40625,-0.03125 0.546875,-0.03125 0.96875,0 1.453125,0.421875 1.453125,1.328125 0,1.25 -0.890625,2 -2.375,2 H 2.671875 Z m 0,0"
               id="path6097" />
          </g>
        </g>
        <g
           clip-path="url(#clipPath2386)"
           clip-rule="nonzero"
           id="g6109">
          <g
             style="fill:#000000;fill-opacity:1"
             id="g6107">
            <g
               id="g6105"
               transform="translate(7.9920001,9.349)">
              <path
                 style="stroke:none"
                 d="m 4.125,2.984375 c 0,-0.03125 0,-0.0625 -0.21875,-0.265625 -1.546875,-1.578125 -1.953125,-3.921875 -1.953125,-5.828125 0,-2.171875 0.46875,-4.34375 2,-5.890625 C 4.125,-9.15625 4.125,-9.171875 4.125,-9.21875 c 0,-0.078125 -0.046875,-0.125 -0.125,-0.125 -0.125,0 -1.25,0.84375 -1.984375,2.4375 -0.640625,1.359375 -0.78125,2.75 -0.78125,3.796875 0,0.96875 0.140625,2.46875 0.828125,3.875 0.734375,1.53125 1.8125,2.34375 1.9375,2.34375 0.078125,0 0.125,-0.03125 0.125,-0.125 z m 0,0"
                 id="path6103" />
            </g>
          </g>
        </g>
        <g
           style="fill:#000000;fill-opacity:1"
           id="g6115">
          <g
             id="g6113"
             transform="translate(13.121,9.349)">
            <path
               style="stroke:none"
               d="M 2.8125,-8.625 2.671875,-8.765625 c -0.625,0.3125 -1.0625,0.421875 -1.921875,0.5 l -0.046875,0.25 H 1.28125 c 0.28125,0 0.40625,0.09375 0.40625,0.296875 0,0.078125 -0.015625,0.21875 -0.03125,0.28125 L 0.453125,-0.84375 C 0.4375,-0.8125 0.4375,-0.765625 0.4375,-0.734375 c 0,0.46875 0.578125,0.859375 1.234375,0.859375 0.4375,0 1.046875,-0.21875 1.5625,-0.59375 1.15625,-0.8125 1.9375,-2.453125 1.9375,-4.03125 0,-0.453125 -0.109375,-0.921875 -0.25,-1.09375 C 4.84375,-5.703125 4.6875,-5.765625 4.5,-5.765625 c -0.28125,0 -0.640625,0.09375 -0.96875,0.265625 -0.609375,0.328125 -1.015625,0.6875 -1.75,1.625 z m 1.03125,3.5625 c 0.3125,0 0.46875,0.265625 0.46875,0.859375 0,0.765625 -0.25,1.78125 -0.609375,2.5625 C 3.3125,-0.8125 2.828125,-0.4375 2.1875,-0.4375 1.640625,-0.4375 1.34375,-0.703125 1.34375,-1.203125 1.34375,-1.5 1.390625,-1.84375 1.5,-2.28125 1.71875,-3.234375 2.015625,-3.8125 2.484375,-4.3125 2.875,-4.71875 3.5,-5.0625 3.84375,-5.0625 Z m 0,0"
               id="path6111" />
          </g>
        </g>
        <g
           clip-path="url(#clipPath7084)"
           clip-rule="nonzero"
           id="g6123">
          <g
             style="fill:#000000;fill-opacity:1"
             id="g6121">
            <g
               id="g6119"
               transform="translate(18.955,9.349)">
              <path
                 style="stroke:none"
                 d="m 3.59375,-3.109375 c 0,-0.96875 -0.125,-2.484375 -0.8125,-3.890625 -0.75,-1.53125 -1.828125,-2.34375 -1.953125,-2.34375 -0.0625,0 -0.125,0.046875 -0.125,0.125 0,0.046875 0,0.0625 0.25,0.296875 1.21875,1.21875 1.921875,3.203125 1.921875,5.8125 0,2.125 -0.453125,4.3125 -2,5.890625 -0.171875,0.140625 -0.171875,0.171875 -0.171875,0.203125 0,0.078125 0.0625,0.125 0.125,0.125 0.125,0 1.25,-0.84375 1.984375,-2.421875 0.640625,-1.375 0.78125,-2.75 0.78125,-3.796875 z m 0,0"
                 id="path6117" />
            </g>
          </g>
        </g>
      </g>
    </g>
    <g
       inkscape:label=""
       transform="translate(115.94938,101.28683)"
       id="g6393">
      <g
         id="g6391"
         transform="matrix(0.352778,0,0,0.352778,-0.247474,-0.00185208)">
        <g
           style="fill:#000000;fill-opacity:1"
           id="g6367">
          <g
             id="g6365"
             transform="translate(0.389,9.349)">
            <path
               style="stroke:none"
               d="m 1.15625,-7.9375 0.640625,0.03125 c 0.28125,0 0.421875,0.09375 0.421875,0.3125 0,0.171875 -0.0625,0.546875 -0.109375,0.90625 L 1.0625,-0.65625 C 1.015625,-0.4375 0.875,-0.359375 0.375,-0.28125 L 0.3125,0.03125 H 0.75 C 1.078125,0 1.25,0 1.40625,0 c 0.125,0 0.4375,0.015625 0.75,0.03125 h 0.4375 L 2.828125,0.046875 C 3.0625,0.0625 3.21875,0.078125 3.3125,0.078125 c 0.578125,0 1.140625,-0.171875 1.703125,-0.515625 0.953125,-0.546875 1.46875,-1.375 1.46875,-2.28125 C 6.484375,-3.234375 6.328125,-3.625 6,-3.890625 5.6875,-4.140625 5.328125,-4.25 4.5,-4.359375 5.1875,-4.609375 5.484375,-4.75 5.859375,-5.078125 6.40625,-5.546875 6.6875,-6.109375 6.6875,-6.71875 c 0,-0.984375 -0.703125,-1.546875 -1.890625,-1.546875 -0.03125,0 -0.140625,0 -0.328125,0 L 3.71875,-8.25 C 3.578125,-8.234375 3.140625,-8.234375 3,-8.234375 c -0.234375,0 -0.59375,-0.015625 -1.1875,-0.03125 h -0.625 z m 1.4375,3.875 h 1.015625 c 1.234375,0 1.828125,0.5 1.828125,1.546875 0,1.21875 -0.875,2.109375 -2.0625,2.109375 -0.25,0 -0.59375,-0.015625 -0.984375,-0.046875 C 2.3125,-0.46875 2.171875,-0.484375 1.984375,-0.484375 Z M 3.25,-7.765625 c 0.125,0 0.15625,-0.015625 0.40625,-0.03125 0.25,-0.015625 0.40625,-0.03125 0.546875,-0.03125 0.96875,0 1.453125,0.421875 1.453125,1.328125 0,1.25 -0.890625,2 -2.375,2 H 2.671875 Z m 0,0"
               id="path6363" />
          </g>
        </g>
        <g
           clip-path="url(#clipPath5348)"
           clip-rule="nonzero"
           id="g6375">
          <g
             style="fill:#000000;fill-opacity:1"
             id="g6373">
            <g
               id="g6371"
               transform="translate(7.9920001,9.349)">
              <path
                 style="stroke:none"
                 d="m 4.125,2.984375 c 0,-0.03125 0,-0.0625 -0.21875,-0.265625 -1.546875,-1.578125 -1.953125,-3.921875 -1.953125,-5.828125 0,-2.171875 0.46875,-4.34375 2,-5.890625 C 4.125,-9.15625 4.125,-9.171875 4.125,-9.21875 c 0,-0.078125 -0.046875,-0.125 -0.125,-0.125 -0.125,0 -1.25,0.84375 -1.984375,2.4375 -0.640625,1.359375 -0.78125,2.75 -0.78125,3.796875 0,0.96875 0.140625,2.46875 0.828125,3.875 0.734375,1.53125 1.8125,2.34375 1.9375,2.34375 0.078125,0 0.125,-0.03125 0.125,-0.125 z m 0,0"
                 id="path6369" />
            </g>
          </g>
        </g>
        <g
           style="fill:#000000;fill-opacity:1"
           id="g6381">
          <g
             id="g6379"
             transform="translate(13.121,9.349)">
            <path
               style="stroke:none"
               d="M 4.09375,-3.9375 H 4.359375 C 4.453125,-4.71875 4.546875,-5.15625 4.65625,-5.46875 4.359375,-5.65625 3.9375,-5.765625 3.5,-5.765625 c -0.53125,0 -1.421875,0.4375 -2.09375,1.046875 C 0.75,-4.140625 0.296875,-2.875 0.296875,-1.625 c 0,1.140625 0.5,1.75 1.453125,1.75 0.65625,0 1.21875,-0.234375 1.890625,-0.765625 l 0.59375,-0.5 -0.09375,-0.234375 -0.1875,0.125 c -0.859375,0.5625 -1.3125,0.765625 -1.734375,0.765625 -0.671875,0 -1.015625,-0.46875 -1.015625,-1.421875 0,-1.28125 0.421875,-2.53125 1.015625,-2.984375 0.25,-0.1875 0.53125,-0.28125 0.90625,-0.28125 0.53125,0 0.96875,0.21875 0.96875,0.515625 z m 0,0"
               id="path6377" />
          </g>
        </g>
        <g
           clip-path="url(#clipPath5986)"
           clip-rule="nonzero"
           id="g6389">
          <g
             style="fill:#000000;fill-opacity:1"
             id="g6387">
            <g
               id="g6385"
               transform="translate(18.285,9.349)">
              <path
                 style="stroke:none"
                 d="m 3.59375,-3.109375 c 0,-0.96875 -0.125,-2.484375 -0.8125,-3.890625 -0.75,-1.53125 -1.828125,-2.34375 -1.953125,-2.34375 -0.0625,0 -0.125,0.046875 -0.125,0.125 0,0.046875 0,0.0625 0.25,0.296875 1.21875,1.21875 1.921875,3.203125 1.921875,5.8125 0,2.125 -0.453125,4.3125 -2,5.890625 -0.171875,0.140625 -0.171875,0.171875 -0.171875,0.203125 0,0.078125 0.0625,0.125 0.125,0.125 0.125,0 1.25,-0.84375 1.984375,-2.421875 0.640625,-1.375 0.78125,-2.75 0.78125,-3.796875 z m 0,0"
                 id="path6383" />
            </g>
          </g>
        </g>
      </g>
    </g>
    <g
       inkscape:label=""
       transform="translate(57.886287,151.92017)"
       id="g12317">
      <g
         id="g12315"
         transform="matrix(0.352778,0,0,0.352778,-0.1326,-0.00507125)">
        <g
           clip-path="url(#clipPath3060)"
           clip-rule="nonzero"
           id="g19">
          <g
             style="fill:#000000;fill-opacity:1"
             id="g17">
            <g
               id="use15"
               transform="translate(0.329,5.7800002)">
              <path
                 style="stroke:none"
                 d="M 4.8125,-5.640625 4.6875,-5.75 4.296875,-5.53125 c -0.5,-0.1875 -0.703125,-0.234375 -1.015625,-0.234375 -0.34375,0 -0.578125,0.0625 -0.90625,0.21875 -0.734375,0.375 -1.125,0.734375 -1.4375,1.3125 -0.515625,1.0625 -0.890625,2.5 -0.890625,3.4375 0,0.515625 0.1875,0.921875 0.40625,0.921875 0.265625,0 0.71875,-0.25 1.171875,-0.65625 0.5,-0.453125 0.96875,-1 1.609375,-1.90625 l -0.34375,1.515625 C 2.84375,-0.71875 2.828125,-0.5 2.828125,-0.3125 c 0,0.265625 0.09375,0.421875 0.28125,0.421875 0.265625,0 0.765625,-0.3125 1.75,-1.125 l -0.09375,-0.25 c -0.0625,0.0625 -0.109375,0.078125 -0.15625,0.125 -0.375,0.328125 -0.5625,0.4375 -0.734375,0.4375 -0.109375,0 -0.1875,-0.109375 -0.1875,-0.28125 0,-0.0625 0,-0.09375 0.015625,-0.125 z m -1,0.6875 c -0.265625,1.3125 -0.484375,1.921875 -0.890625,2.546875 -0.6875,1 -1.421875,1.703125 -1.796875,1.703125 -0.140625,0 -0.21875,-0.15625 -0.21875,-0.484375 0,-0.765625 0.34375,-2.15625 0.75,-3.109375 0.296875,-0.65625 0.5625,-0.875 1.140625,-0.875 0.28125,0 0.484375,0.046875 1.015625,0.21875 z m 0,0"
                 id="path26" />
            </g>
          </g>
        </g>
      </g>
    </g>
    <g
       inkscape:label=""
       transform="translate(82.883857,150.06938)"
       id="g13705">
      <g
         id="g13703"
         transform="matrix(0.352778,0,0,0.352778,-0.206904,0.0220927)">
        <g
           clip-path="url(#clipPath3395)"
           clip-rule="nonzero"
           id="g13701">
          <g
             style="fill:#000000;fill-opacity:1"
             id="g13699">
            <g
               id="g13697"
               transform="translate(0.149,8.7030001)">
              <path
                 style="stroke:none"
                 d="M 2.8125,-8.625 2.671875,-8.765625 c -0.625,0.3125 -1.0625,0.421875 -1.921875,0.5 l -0.046875,0.25 H 1.28125 c 0.28125,0 0.40625,0.09375 0.40625,0.296875 0,0.078125 -0.015625,0.21875 -0.03125,0.28125 L 0.453125,-0.84375 C 0.4375,-0.8125 0.4375,-0.765625 0.4375,-0.734375 c 0,0.46875 0.578125,0.859375 1.234375,0.859375 0.4375,0 1.046875,-0.21875 1.5625,-0.59375 1.15625,-0.8125 1.9375,-2.453125 1.9375,-4.03125 0,-0.453125 -0.109375,-0.921875 -0.25,-1.09375 C 4.84375,-5.703125 4.6875,-5.765625 4.5,-5.765625 c -0.28125,0 -0.640625,0.09375 -0.96875,0.265625 -0.609375,0.328125 -1.015625,0.6875 -1.75,1.625 z m 1.03125,3.5625 c 0.3125,0 0.46875,0.265625 0.46875,0.859375 0,0.765625 -0.25,1.78125 -0.609375,2.5625 C 3.3125,-0.8125 2.828125,-0.4375 2.1875,-0.4375 1.640625,-0.4375 1.34375,-0.703125 1.34375,-1.203125 1.34375,-1.5 1.390625,-1.84375 1.5,-2.28125 1.71875,-3.234375 2.015625,-3.8125 2.484375,-4.3125 2.875,-4.71875 3.5,-5.0625 3.84375,-5.0625 Z m 0,0"
                 id="path13695" />
            </g>
          </g>
        </g>
      </g>
    </g>
    <g
       inkscape:label=""
       transform="translate(107.22007,156.28277)"
       id="g14381">
      <g
         id="g14379"
         transform="matrix(0.352778,0,0,0.352778,-0.157295,-0.00507125)">
        <g
           clip-path="url(#clipPath170)"
           clip-rule="nonzero"
           id="g14377">
          <g
             style="fill:#000000;fill-opacity:1"
             id="g14375">
            <g
               id="g14373"
               transform="translate(0.149,5.7800002)">
              <path
                 style="stroke:none"
                 d="M 4.09375,-3.9375 H 4.359375 C 4.453125,-4.71875 4.546875,-5.15625 4.65625,-5.46875 4.359375,-5.65625 3.9375,-5.765625 3.5,-5.765625 c -0.53125,0 -1.421875,0.4375 -2.09375,1.046875 C 0.75,-4.140625 0.296875,-2.875 0.296875,-1.625 c 0,1.140625 0.5,1.75 1.453125,1.75 0.65625,0 1.21875,-0.234375 1.890625,-0.765625 l 0.59375,-0.5 -0.09375,-0.234375 -0.1875,0.125 c -0.859375,0.5625 -1.3125,0.765625 -1.734375,0.765625 -0.671875,0 -1.015625,-0.46875 -1.015625,-1.421875 0,-1.28125 0.421875,-2.53125 1.015625,-2.984375 0.25,-0.1875 0.53125,-0.28125 0.90625,-0.28125 0.53125,0 0.96875,0.21875 0.96875,0.515625 z m 0,0"
                 id="path14371" />
            </g>
          </g>
        </g>
      </g>
    </g>
  </g>
</svg>
